<svg xmlns="http://www.w3.org/2000/svg" viewBox="0 0 48 48"><title>Asset 5</title><g id="Layer_2" data-name="Layer 2"><g id="Layer_1-2" data-name="Layer 1"><path d="M23.86.05a9,9,0,0,0-.16,1l-.1.85-.41-.2a1.32,1.32,0,0,0-1-.15l-.59.06.05-.3c.06-.35,0-.37-.22-.06a1,1,0,0,0,0,1,1,1,0,0,1,0,.76.87.87,0,0,0,.12.84c.23.45.16.53-.17.21a.61.61,0,0,1-.2-.48c0-.56-.55-.79-1.18-.47-.21.1-.23.09-.39-.16s-.53-.62-.39-.37l.28.38c.16.2.18.29.12.36s-.15,0-.3-.34a1.37,1.37,0,0,1-.17-.52.21.21,0,0,0-.09-.2c-.19-.16-.16,0,.12.65S19.5,3.52,19,4l-.36.33-.34-.15a1.3,1.3,0,0,1-.54-.5l-.2-.34,0,.3a1,1,0,0,0,.39.87c.1,0,.15.12.13.16s0,.08.12.12.17.08.17.12.05.06.11,0h0a.17.17,0,0,0-.07.13,3.77,3.77,0,0,1-.26.62l-.28.53-1-.42c-.53-.23-1-.45-1.17-.48l-.2,0,.15.17a.35.35,0,0,0,.29.13A4.42,4.42,0,0,1,17,6c.79.38.85.42.77.57s-.12.17-.15.17-.39-.25-.8-.53a5.33,5.33,0,0,0-.77-.5,3.18,3.18,0,0,0,.7.55l.76.53s0,.11-.16.23l-.19.2h.23a.92.92,0,0,0,.38-.08.4.4,0,0,1,.28,0c.11,0,.09.11-.1.48S17.65,8,17.6,8a1.4,1.4,0,0,1-.36-.18,1.61,1.61,0,0,0-1.17-.38,1.34,1.34,0,0,1-.8-.17c-.32-.18-.33-.17-.16.17a1,1,0,0,0,.79.48,1.47,1.47,0,0,1,.86.45,1.08,1.08,0,0,0,.41.27s0,.08-.08.16S16.9,9,16.9,9s.44,0,.74-.11c.46-.23.58-.21,1.12.16.26.19.49.32.51.29a5.75,5.75,0,0,0-1.07-.72c-.06,0,0-.16.21-.35s.34-.28.4-.22,0,.14-.09.26l-.17.17h.17a1.08,1.08,0,0,0,.42-.12.52.52,0,0,1,.45,0,.72.72,0,0,0,.38,0c.16-.06.15-.07-.08-.2s-.3-.2-.09-.45.35-.17.33.05,0,.26.21.18l.21-.08-.24.47a5.19,5.19,0,0,0-.33.79l-.09.33H19l-2.72-.09a7.73,7.73,0,0,0-1.94,0c-.08.14,1.45.44,3.69.71a7,7,0,0,1,1.2.2c0,.05,0,.07-.09.07a1.67,1.67,0,0,0-.53.24,1.06,1.06,0,0,1-1.09.16c-.33-.09-.4-.08-.84.12a1.23,1.23,0,0,1-.88.16c-.35,0-.37,0-.26.08a1,1,0,0,0,1,.29,1.14,1.14,0,0,1,.78,0,1.42,1.42,0,0,0,1.11,0,1.77,1.77,0,0,1,.57-.12c.26,0,.27,0,.11.12-.43.29-.49.44-.19.44h.18L19,12c-.27.17-.23.62.05.66s.21,0,.24-.14.13-.2.4-.09.15.06-.07.12l-.23.06.18.18.17.19-.28.17a1,1,0,0,0-.57,1.1.84.84,0,0,0,.25.41l.25.24-.55.42c-.67.52-.88.59-1.39.51a.83.83,0,0,1-.77-.8.66.66,0,0,1,.48-.75c.3,0,.13-.44-.2-.52s-.2,0-.07-.37a.71.71,0,0,1,.41-.45c.15-.06.27-.13.27-.16a2.75,2.75,0,0,0-1.2-.43,1.69,1.69,0,0,0-1.22.56l-.22.27-.12-.23-.12-.22-.23.36a1.39,1.39,0,0,0-.21.76c0,.43,0,.5.83,1.57.15.21.25.41.22.44a2.22,2.22,0,0,1-1.48-.17,4.81,4.81,0,0,1-1.49-1.18l-.17-.24.19-.2a.6.6,0,0,1,.85,0c.13.09.23.16.25.14a.77.77,0,0,0,.08-.94c-.11-.16-.11-.18,0-.18a2.16,2.16,0,0,0,1.23-.71c.29-.44.34-.65.14-.65a2.29,2.29,0,0,1-.61-.2,1.19,1.19,0,0,0-.71-.16c-.27.05-.27,0-.27-.23s-.15-.7-.26-.7a3.57,3.57,0,0,0-.53.3,2,2,0,0,0-.93,1.12c-.12.64-.26.34-.53-1.14A3.42,3.42,0,0,0,9.3,7.82a1.72,1.72,0,0,0-1.23-.2c-.38,0-.94.07-1.27.07a1.94,1.94,0,0,0-1.15.37L5,8.42c-.18.05,0,.31.37.44L5.7,9l0,.36c-.05.39-.28.65-.56.65s-.18.16.14.29a2.12,2.12,0,0,0,2.12-.38l.09-.17.13.18a1.42,1.42,0,0,0,.75.4s0-.21,0-.47c0-.45.14-1.06.31-1.06A2.07,2.07,0,0,1,9,9.56c0,.09.1.58.16,1.09s.15,1,.19,1.16l.06.23L9,11.76a1.75,1.75,0,0,0-1.6-.4c-.1.06-.1.12,0,.38s.12.31-.13.47a1,1,0,0,0-.46.94,1.32,1.32,0,0,0,.34,1l.18.19.16-.24c.45-.72,1.44-.73,2.29,0a12.19,12.19,0,0,1,1,1.19A5.73,5.73,0,0,0,14,17.59l.33.06-.28.3a1.9,1.9,0,0,0,.2,2.85,2.64,2.64,0,0,0,2,.67c.73,0,.91.06,1.06.2l.18.17.09-.23a.67.67,0,0,0-.18-.74l-.18-.17.28-.23a1.59,1.59,0,0,0,.36-2L17.61,18l-.12.27c-.1.2-.28.34-.7.54l-.57.28L16,18.92a.8.8,0,0,0-.38-.16c-.14,0-.15,0-.11.26s-.19.7-.46.7-.16-.21.14-.66a2.64,2.64,0,0,1,1.45-.91,7.57,7.57,0,0,0,1.11-.49,1.88,1.88,0,0,1,.52-.24,2.76,2.76,0,0,1-.1.41c-.14.47-.09,1.17.1,1.17a3.3,3.3,0,0,0,.55-.16,2,2,0,0,0,1.07-.92l.13-.23.39.47a7.33,7.33,0,0,1,1,1.83c.09.27.07.35-.1.72a2.35,2.35,0,0,0-.19,1.08v.65l-.25,0A3.11,3.11,0,0,1,19.51,22c-.34-.25-.39-.25-1-.21s-3.5.36-3.61.39-.69-.36-.74-.56a2.38,2.38,0,0,0-1-1.56c-.27-.17-.28-.19-.16-.36s.12-.19,0-.19-.14,0,0-.14S13.2,19,13,19s-.13,0,0-.11.14-.17.12-.19l-.26-.16a.78.78,0,0,1-.32-.5,2.25,2.25,0,0,0-.4-.72c-.17-.19-.39-.5-.51-.67s-.25-.32-.31-.29a.13.13,0,0,1-.16-.12c0-.15-.07-.18-.29-.2a.41.41,0,0,1-.23-.15.26.26,0,0,0-.26-.11.22.22,0,0,1-.23-.09c0-.09-.18-.12-.44-.11s-.41,0-.49-.11S9,15.35,9,15.5s-.1.12-.36.12a.66.66,0,0,0-.53.17.32.32,0,0,1-.33.12c-.25-.06-.61.08-.61.24s-.08.12-.17.12a.46.46,0,0,0-.3.2c-.07.11-.17.2-.22.2a2,2,0,0,0-.48.4c-.32.31-.38.42-.28.46s.09.09-.1.27-.21.24-.07.24.14,0,0,.14-.17.32.1.28l.22,0-.21.11c-.18.11-.2.17-.21.83a2.48,2.48,0,0,0,.15,1.16,2.8,2.8,0,0,1,.15,1.06,1.33,1.33,0,0,0,.34,1.15c.14.15.15.22.08.53a1.21,1.21,0,0,0,.21,1.31c.16.21.31.36.34.33s.27.39.27.73.35,1.23.49,1.23S7.6,27,7,28.23a40.64,40.64,0,0,0-1.77,4.38c-.09.33-.17.44-.56.71a8.7,8.7,0,0,1-1,.57,2,2,0,0,1-1.13.26c-.55,0-.63,0-.92-.25A1.6,1.6,0,0,1,1,32.6c0-.86.45-1.59,2-3.11a13.1,13.1,0,0,0,1.4-1.58,6,6,0,0,0,.53-1.46c.25-.95.26-1.05.17-1.46-.24-1-1-1.52-2.35-1.64-.83-.08-1.23-.21-1.43-.49s-.12-.16-.17.11a1.88,1.88,0,0,0,.17,1.11,5.13,5.13,0,0,0,1.59,1.19,1.53,1.53,0,0,1,.92,1.05c.2.59-.23,1.28-1.67,2.66S0,31.41,0,32.58a2.21,2.21,0,0,0,.86,1.87c.94.85,1.91.91,3.33.24l.69-.33s0,.16,0,.41a7.75,7.75,0,0,0,.1,1A6.58,6.58,0,0,1,5,38c-.13.38-.58.82-.84.82a.74.74,0,0,0-.38.2c-.19.18-.2.25-.15.6a1.49,1.49,0,0,1-.12.84A3,3,0,0,0,3.43,42a3.27,3.27,0,0,0,.21,1.34c.1.15.11.24,0,.35-.15.28-.08.76.21,1.46a4.9,4.9,0,0,1,.59,1.81c0,.47.07.51.35.66A3.81,3.81,0,0,0,7.05,48,41.8,41.8,0,0,0,14,46.77l1.29-.29,1.49.2a40.22,40.22,0,0,0,6.25.5,41.76,41.76,0,0,0,7.38-.42l2.16-.27,2.16.47c4.33,1,6.34,1.21,7.39.94.53-.14,1.12-.43,1.12-.56a5.37,5.37,0,0,1,.5-1.84c.43-1,.53-1.36.41-1.73a.56.56,0,0,1,0-.53,5,5,0,0,0,.17-1.38c0-1,0-1.18-.08-1.45a1.78,1.78,0,0,1-.12-.81c0-.45,0-.51-.21-.66a.78.78,0,0,0-.37-.17c-.25,0-.64-.39-.78-.78a5.84,5.84,0,0,1,0-2.4l.13-1s.28.13.64.29a3,3,0,0,0,3.65-.38,3.35,3.35,0,0,0,.59-.82A2,2,0,0,0,48,32.58c0-1.26-.53-2.16-2.26-3.88-1.52-1.52-1.8-2.07-1.47-2.85.18-.42.32-.54,1.16-1,1-.57,1.54-1.06,1.54-1.39a.86.86,0,0,0-.18-.46c-.16-.2-.22-.22-.57-.19a1.58,1.58,0,0,0-.88.4,5.73,5.73,0,0,1-.86.55,2.88,2.88,0,0,0-1.72,2.88c.1,1,.69,1.89,2.17,3.29,1.12,1.06,1.71,2,1.71,2.73a1.68,1.68,0,0,1-.63,1,.89.89,0,0,1-.78.26,2.11,2.11,0,0,1-1.13-.33A6.49,6.49,0,0,1,43,33a1.34,1.34,0,0,1-.61-.83c-.28-.85-1.14-2.94-1.68-4.07-.78-1.6-.87-2.25-.45-3.13a4.18,4.18,0,0,0,.36-1.82,1.06,1.06,0,0,1,.21-.54,3.66,3.66,0,0,0,.38-1c.21-1,.33-1.35.56-1.58a1.94,1.94,0,0,0,.54-1.3c0-.53,0-.54-.17-.64a1.44,1.44,0,0,0-.43-.09c-.14,0-.24-.1-.4-.37a2,2,0,0,0-1.19-.8,2.22,2.22,0,0,1-.57-.21,2.21,2.21,0,0,0-1.48,0c-.24.1-.3.1-.4,0a1.16,1.16,0,0,0-.37-.18c-.25-.07-.28-.05-.52.28a2,2,0,0,0-.51,1.3,2.24,2.24,0,0,1-.17.79,2,2,0,0,0-.18.81V20l-.82.73a4.06,4.06,0,0,0-1,1.19c-.12.25-.23.46-.24.47l-.37-.1c-.21-.06-1-.18-1.65-.27a10.38,10.38,0,0,1-1.32-.2c-.15-.14.22-.25,1-.3a3.23,3.23,0,0,0,2.07-.66A2,2,0,0,0,34,18.3a2.23,2.23,0,0,0-.43-.54l-.18-.13h.18A4,4,0,0,0,35.2,17,8.37,8.37,0,0,0,37,15.1a12.35,12.35,0,0,1,.82-.95c.8-.78,1.92-.82,2.4-.07l.17.28.19-.21a1.45,1.45,0,0,0,0-1.82.81.81,0,0,0-.36-.24c-.12,0-.12,0,0-.23s.15-.49-.09-.54a2,2,0,0,0-1.6.55c-.29.25-.29.25-.24.06s.13-.7.22-1.31a4,4,0,0,1,.53-1.83c.14,0,.3.54.3,1,0,.31,0,.52.08.52a1.63,1.63,0,0,0,.7-.38l.15-.17.2.23a1.34,1.34,0,0,0,.5.32,2.79,2.79,0,0,0,1.66-.12l.24-.15L42.65,10a.54.54,0,0,1-.5-.56,1.18,1.18,0,0,0,0-.35c0-.08,0-.13.19-.17.37-.08.79-.52.51-.52a3.61,3.61,0,0,1-.67-.33A1.91,1.91,0,0,0,41,7.69c-.33,0-.86,0-1.19-.07a2.55,2.55,0,0,0-2.44,1.22,4.17,4.17,0,0,0-.66,2A9.42,9.42,0,0,1,36.41,12c-.08.22-.09.22-.28-.24a2,2,0,0,0-1-1.11c-.38-.24-.41-.24-.54-.12a.76.76,0,0,0-.14.5v.37l-.3-.05a1.2,1.2,0,0,0-.73.16,1.11,1.11,0,0,1-.6.17c-.14,0-.16,0-.11.13A1.82,1.82,0,0,0,34,13l.36.1-.13.23a.7.7,0,0,0,.08.75c.06.08.13.07.29-.05a.81.81,0,0,1,.43-.16c.28,0,.59.21.59.39a4.8,4.8,0,0,1-1.47,1.36,2.84,2.84,0,0,1-1.42.3c-.25,0-.26-.07-.18-.23s.27-.38.47-.63c.65-.83.75-1.35.35-2-.2-.31-.33-.34-.38-.11s-.05.16-.07.16l-.39-.35a1.4,1.4,0,0,0-1.34-.42c-.56.08-1.19.53-.74.53.29,0,.74.72.51.8s-.49.38-.49.49.09.08.2.08c.48,0,.64.83.25,1.28-.2.23-.25.25-.77.25-.73,0-1.08-.17-1.32-.64l-.19-.35.17-.26a1.09,1.09,0,0,0,.16-.49.89.89,0,0,0-.55-.8.83.83,0,0,1-.34-.17c-.07-.1-.05-.16.12-.31l.22-.17-.24-.07c-.22-.06-.23-.06-.08-.12s.35-.09.4.08.36.21.48,0,.06-.21-.08-.4-.16-.23-.05-.23.12,0,.12-.07-.28-.33-.4-.33a.1.1,0,0,1-.1-.08c0-.14.23-.14.71,0a1.51,1.51,0,0,0,1.25,0,1,1,0,0,1,.73,0,1.07,1.07,0,0,0,.67,0c.13,0,.22-.11.2-.13a.47.47,0,0,0-.27,0,1.07,1.07,0,0,1-.59,0,1.08,1.08,0,0,0-.75,0,2.85,2.85,0,0,1-.55.13,4.44,4.44,0,0,1-1.23-.4.89.89,0,0,0-.38,0l-.39,0,.06-.26c0-.14.05-.29.05-.33s.17-.07.39-.07a1.27,1.27,0,0,1,.76.24,1.21,1.21,0,0,0,1.16.16c.22-.08.33-.06.71.11s1.22.31,1.28.15,0-.09-.31-.05a1.33,1.33,0,0,1-.85-.17c-.45-.19-.54-.21-.86-.12-.56.13-.73.11-1.09-.16a1.25,1.25,0,0,0-.46-.24c-.09,0-.15,0-.15-.06a6.21,6.21,0,0,1,1.19-.21c2.26-.28,3.74-.57,3.66-.71a8.69,8.69,0,0,0-2,0l-1.92.06-.19-.2-.2-.2.37-.17a2.36,2.36,0,0,1,.89-.16c.5,0,.52,0,.81-.31a1.11,1.11,0,0,1,.74-.41c.46-.09.87-.42.87-.7,0-.09,0-.09-.28,0a1.41,1.41,0,0,1-.79.17,1.39,1.39,0,0,0-1.11.37,1.25,1.25,0,0,1-.3.19A1.77,1.77,0,0,1,30,7.56l-.25-.44L29.88,7a2.14,2.14,0,0,1,.43-.17c.12,0,.21-.08.18-.1a3.79,3.79,0,0,1,.77-.63c1.3-.92,1.21-1-.39-.24l-.93.44-.2-.3c-.38-.59-.4-.65-.3-.93a1.4,1.4,0,0,1,.42-.53,1,1,0,0,0,.44-1c0-.14-.07-.13-.23.15a1.24,1.24,0,0,1-.53.48L29,4.48c-.17.1-.2.1-.33-.07s-.14-.19.12-.21l.25,0-.35-.38c-.38-.42-.38-.31,0-1.26l.19-.45-.22.2a3,3,0,0,0-.42.49l-.22.3-.52-.26a3.64,3.64,0,0,0-.87-.32c-.29-.05-.35-.08-.3-.19a2.76,2.76,0,0,0,.1-.54c0-.33,0-.44-.14-.6L26.13,1v.35a1.31,1.31,0,0,1-.27.76,1.87,1.87,0,0,0-.33,1c-.07.68-.23.88-.68.88s-.63-.18-.63-.93A21.52,21.52,0,0,0,24,.2C23.93,0,23.89,0,23.86.05ZM24,1.66c0,.39,0,.44-.22.31s-.1-.56,0-1.29c.06-.27.06-.27.12.16C24,1.08,24,1.45,24,1.66Zm2.34,0a.86.86,0,0,1-.43.84c-.3.1-.3,0,0-.45a1.48,1.48,0,0,0,.25-.62c0-.19,0-.22.08-.13A.73.73,0,0,1,26.37,1.68Zm-4.8.23c0,.17-.06.2-.11.13a.79.79,0,0,1,0-.61c0-.13.07-.12.11.05A2,2,0,0,1,21.57,1.91Zm1.87,0,.68.34v.35c0,.2,0,.34-.07.32a.2.2,0,0,1,0-.21A.35.35,0,0,0,24,2.42c0-.06-.07-.13,0-.16s0,0-.09,0-.12,0,0,.19.11.2,0,.22-.07.09.05.27.13.23,0,.29-.07.11.07.3c.31.4.23.61-.16.4-.16-.08-.17-.07-.11.06.15.36.15.44,0,.44a.5.5,0,0,1-.25-.09c-.07-.08-.11,0-.15.12s-.13.25-.33,0-.16-.16-.22,0-.23.15-.42,0-.15-.09-.15,0,0,.1-.08.1-.08-.41.11-.67a1.29,1.29,0,0,0,.28-.71c0-.19,0-.2-.21-.17a.83.83,0,0,1-.4-.05c-.13-.07-.08-.09.29-.14a1.08,1.08,0,0,0,.43-.1c0-.17-.49-.49-.73-.49s-.27,0-.27-.15a.37.37,0,0,1,.1-.24c.14-.13.48-.12.48,0s.1.17.21.25.23.12.38,0S23,2,23.05,2s.09.11.05,0-.16-.13-.4-.16-.37-.08-.39-.18S22.7,1.54,23.44,1.89ZM22,2.41c.08.17.08.21,0,.25s-.38,0-.38-.2S21.89,2.11,22,2.41Zm.42.1c.06.19-.21.09-.31-.12s-.1-.21.08-.09A.69.69,0,0,1,22.45,2.51Zm4.91.35c.54.26,1.61,1.2,1.42,1.26a4.71,4.71,0,0,1-.94-.37,7.24,7.24,0,0,0-1.07-.45c-.22,0-.24,0-.24.19s0,.24-.2.24-.21,0-.21.25,0,.24-.24.19-.25,0-.28.14-.06.19-.34.17-.3,0-.3.1c0,.36-.66.16-.86-.25s-.14-.28.07-.28.2,0,.2-.08.06-.05.18,0a.88.88,0,0,0,.86-.17,1.09,1.09,0,0,0,.19-.54,1.29,1.29,0,0,1,.13-.49C26,2.46,26.57,2.49,27.36,2.86Zm1.09,0c-.14.33-.34.5-.34.31a1.93,1.93,0,0,1,.47-.64A1.27,1.27,0,0,1,28.45,2.86ZM22,3c.07,0,.08.06.05.15a.66.66,0,0,0,0,.36c.07.15.05.22,0,.29A.4.4,0,0,0,22,4c0,.19-.17,0-.34-.33a1,1,0,0,1,0-.84c0-.09.07-.09.18,0A.57.57,0,0,0,22,3ZM21,3.17a.62.62,0,0,1,.16.44.69.69,0,0,0,.61.68.23.23,0,0,1,.25.18c0,.14.07.15.17.08s.64.33.64.6-.12.25-.29,0-.13-.15-.13,0,.12.23.26.34.25.25.2.44l-.06.21-.15-.18c-.1-.12-.17-.15-.19-.08s-.18-.31-.27-.76c0-.28-.06-.3-.21-.2s-.19.07-.3-.08-.16-.16-.29-.1-.16,0-.2-.13-.09-.18-.14-.12-.23.1-.23-.12,0-.2-.21-.16-.2,0-.2-.16,0-.2-.08-.2a2.92,2.92,0,0,0-.57.36c-.67.47-.95.61-1.28.61h-.28l.25-.17a6.64,6.64,0,0,0,.83-.76C20.1,3,20.6,2.82,21,3.17Zm1.49-.1a.72.72,0,0,1-.12.23c-.12.14-.12.14-.13-.07s.05-.22.13-.22S22.46,3,22.46,3.07Zm5.2.73c.74.35.82.45.55.71a1.71,1.71,0,0,0-.25.37c-.07.17-.14.22-.25.18a.2.2,0,0,0-.26.13c-.08.13-.15.16-.32.13a.4.4,0,0,0-.36.08.24.24,0,0,1-.32,0c-.15-.08-.2-.06-.29.06s-.14.12-.29,0-.21-.08-.29,0-.38,0-.76-.34c-.17-.18-.26-.3-.17-.28a.34.34,0,0,0,.31-.1.39.39,0,0,1,.4-.12c.22,0,.26,0,.3-.15s.12-.22.32-.23.27-.07.29-.19a.37.37,0,0,1,.23-.26.32.32,0,0,0,.2-.26C26.7,3.36,26.82,3.39,27.66,3.8Zm-9.4.52.25.11-.19.1c-.16.09-.22.06-.47-.18a.92.92,0,0,1-.29-.47c0-.17,0-.17.23.07A2.17,2.17,0,0,0,18.26,4.32Zm11.93-.39c0,.12-.13.31-.38.54a2.45,2.45,0,0,0-.47.55l-.07.19L29.1,5C29,4.82,29,4.66,29,4.62a2.15,2.15,0,0,1,.5-.29,1.5,1.5,0,0,0,.54-.4C30.16,3.68,30.19,3.68,30.19,3.93Zm-9.73.36a.23.23,0,0,1,.2.17.24.24,0,0,0,.21.16.23.23,0,0,1,.21.12.3.3,0,0,0,.25.12.44.44,0,0,1,.31.13.29.29,0,0,0,.25.08c.22-.05.32.57.12.72a.26.26,0,0,1-.29,0c-.09-.05-.18,0-.28.07s-.18.11-.31,0a.27.27,0,0,0-.31,0,.29.29,0,0,1-.31,0,.34.34,0,0,0-.35,0,.27.27,0,0,1-.34,0,.39.39,0,0,0-.33-.09c-.13,0-.2,0-.28-.16s-.14-.21-.21-.21-.16-.1-.22-.22-.07-.22.06-.29l.75-.49c.52-.37.6-.4.65-.27A.25.25,0,0,0,20.46,4.29Zm8.87,1.25c.21.35.48.76.58.9.25.34.11.35-.39,0A5.72,5.72,0,0,1,28.2,5c-.11-.22-.11-.26,0-.26a2.51,2.51,0,0,1,.53.66c.39.6.94,1.22.94,1.07a3.12,3.12,0,0,0-.36-.51,4.23,4.23,0,0,1-.9-1.46C28.49,4.31,28.83,4.72,29.33,5.54ZM23,4.88s-.1,0-.17,0a.19.19,0,0,1-.07-.21c.05-.07.1,0,.17,0S23,4.85,23,4.88Zm.41.31c0,.09-.27-.08-.27-.18s.07,0,.16,0S23.43,5.16,23.4,5.19Zm-5.08.89a1.82,1.82,0,0,0-.34.63c.1,0,.44-.45.65-.87.1-.19.24-.34.3-.34s.16.06-.11.47a2.67,2.67,0,0,1-1.13,1l-.34.13.22-.23a5.86,5.86,0,0,0,.62-1c.35-.69.41-.77.47-.61S18.65,5.57,18.32,6.08Zm10.26-.32a18.55,18.55,0,0,1,1.31,1.89,2.89,2.89,0,0,0,.44.59c.32.34.27.39-.18.2A5.38,5.38,0,0,1,28,5.93c-.19-.37-.34-.69-.34-.71,0-.18.2.1.74,1a8.85,8.85,0,0,0,.93,1.3c.38.34.35.25-.05-.25A10.78,10.78,0,0,1,28,5.1,4.09,4.09,0,0,1,28.58,5.76Zm-5.4-.38a.37.37,0,0,1,0,.26c-.09.09-.33-.2-.28-.33S23.12,5.15,23.18,5.38Zm.7.06s-.05,0-.13,0-.12-.11-.12-.13.05,0,.12,0S23.88,5.4,23.88,5.44Zm4,.52c.16.34.4.89.51,1.22a4.43,4.43,0,0,0,.3.71c.18.21,0,.21-.29,0A3.71,3.71,0,0,1,27.36,6.3c-.28-.71-.29-.8-.14-.8s.21.28.34.62a6.57,6.57,0,0,0,.8,1.59c.13.08.1,0-.17-.53a13,13,0,0,1-.74-1.78C27.45,5.19,27.63,5.42,27.89,6Zm-4.21-.17c-.05.13-.07.13-.2,0a.3.3,0,0,1-.07-.28c.05-.13.07-.13.19,0A.26.26,0,0,1,23.68,5.79ZM27.39,7a3.8,3.8,0,0,1,.11.54.56.56,0,0,1-.24-.14,3.19,3.19,0,0,1-.78-1.52c-.07-.44.1-.43.23,0a5.16,5.16,0,0,0,.46,1.23c.16.22.14.11-.15-.73a2.63,2.63,0,0,1-.2-.9C26.89,5.36,27.14,6,27.39,7Zm-.84-.27c.08.23.09.43.06.43s-.5-.55-.67-1-.19-.56-.05-.56.16.17.22.43a1.66,1.66,0,0,0,.22.58c.15.2.15.06,0-.37a1.61,1.61,0,0,1-.12-.55c0-.15,0-.08.12.19S26.48,6.54,26.55,6.76Zm5.18-1.12a4.85,4.85,0,0,1-.75.54c-.67.45-.72.47-.85.34S30,6.37,30,6.35s1.6-.75,1.68-.76S31.76,5.61,31.73,5.64Zm-7.62.13c.1.06.14.37.05.37s-.37-.18-.37-.31S23.91,5.65,24.11,5.77Zm1.25.07c.16.41.17.56,0,.26s-.2-.44-.13-.44S25.32,5.74,25.36,5.84Zm.38.28c.08.26.15.51.17.56s-.08.12-.26-.07-.13-.16,0-.07.18.09.05-.21-.23-.67-.15-.67A.92.92,0,0,1,25.74,6.12Zm-6.52-.2a10.06,10.06,0,0,1-1,1.73c-.12.15-.19.28-.16.31s.58-.59.9-1.25.52-.88.62-.78a8.93,8.93,0,0,1-.43.92,4.17,4.17,0,0,1-1.73,2L17.12,9l.23-.26a7,7,0,0,0,.56-.91c.18-.36.52-1,.75-1.32C19,5.87,19.22,5.68,19.22,5.92Zm4.12,0a.49.49,0,0,1,0,.27l-.06.22-.16-.18A.7.7,0,0,1,23,6C23,5.85,23.24,5.83,23.34,5.92Zm-1.68.45a3,3,0,0,1-.18.66l-.12.28-.11-.4c-.12-.51-.14-.87,0-.81s.08.21.08.41,0,.36.08.36.09-.2.09-.43A1.32,1.32,0,0,1,21.52,6C21.65,5.84,21.71,6,21.66,6.37Zm.68-.31a2,2,0,0,1-.15,1c-.08.13-.1.09-.19-.32s-.13-.55-.16-.63,0-.14.07-.14.14.08.14.32a.57.57,0,0,0,.09.37c.07,0,.08-.07.07-.36S22.24,5.77,22.34,6.06Zm2.37.25s-.08,0-.17,0A.38.38,0,0,1,24.37,6c0-.15,0-.15.17,0A.82.82,0,0,1,24.71,6.31Zm-4.94.29a7,7,0,0,1-.35.88c-.1.24-.15.43-.11.43a3.6,3.6,0,0,0,.62-1.35c.09-.29.2-.5.27-.5s.14.08-.07.67a3.37,3.37,0,0,1-.89,1.42c-.27.22-.38.2-.23,0a5,5,0,0,0,.3-.85c.24-.92.41-1.33.52-1.23S19.87,6.28,19.77,6.6Zm3.11-.42s.08,0,.17.16.23.2.29.17.45.31.45.47a3.71,3.71,0,0,0,.54.65c.6.62.82,1,.76,1.13s-.22.14-.22,0-.41-.79-1.24-1.49a9,9,0,0,1-1-1L22.43,6l.22.14C22.78,6.18,22.88,6.22,22.88,6.18Zm-2.36.54c-.06.79.09.69.18-.11,0-.28.1-.51.17-.53.25-.08-.1,1.28-.4,1.55s-.17.14-.17-.4.14-1.17.24-1.17A3.1,3.1,0,0,1,20.52,6.72Zm3.26-.55s0,.15,0,.27v.23l-.15-.2a.58.58,0,0,1-.17-.28C23.46,6.09,23.73,6.07,23.78,6.17Zm.43.17.07.26c.08.25.08.26-.12.17s-.31-.58-.08-.5Zm.63.42c0,.11,0,.22,0,.24s-.36-.21-.4-.42,0-.17.16-.09A.48.48,0,0,1,24.84,6.76Zm-3-.09c0,.06,0,.12-.08.12s-.08-.06-.08-.12,0-.13.08-.13S21.88,6.6,21.88,6.67Zm1,.09a1.59,1.59,0,0,1,.16.85,1.66,1.66,0,0,0,.1.69,1.68,1.68,0,0,1,.11.62l0,.56-.35.16c-.42.18-.59.49-.43.78.08.13.11.15.14.06a.57.57,0,0,1,.38-.32s0,0,0,.1a.85.85,0,0,0-.12.3c0,.27-.43.34-1,.2a1.6,1.6,0,0,0-1.35.08c-.31.15-.42.17-.48.1A4.61,4.61,0,0,1,20,10a2.55,2.55,0,0,1,.29-1.38c.35-.73.64-1.08.92-1.14a.53.53,0,0,0,.35-.27c.22-.41.41-.46.41-.1,0,.21,0,.24.17.16a.84.84,0,0,0,.26-.4C22.5,6.49,22.65,6.46,22.85,6.76Zm6.91,0c.18.09.18.11.06.21s-.16.09-.26,0C29.34,6.63,29.42,6.55,29.76,6.74ZM21.13,7a.78.78,0,0,1-.26.55c-.15.17-.23.22-.19.12s.12-.33.2-.54C21,6.64,21.13,6.59,21.13,7Zm-2.87,0c0,.06-.09.12-.13.12s0,0,0-.12a.38.38,0,0,1,.14-.12S18.28,6.84,18.26,6.91Zm6,.27v.21l-.2-.23c-.26-.29-.26-.4,0-.28A.31.31,0,0,1,24.29,7.18Zm3.32,0s0,0-.08,0a.59.59,0,0,1-.08-.2s0,0,.08,0A.47.47,0,0,1,27.61,7.15Zm-7.41,0c0,.07-.05,0-.05,0s0-.14,0-.11A.18.18,0,0,1,20.2,7.12Zm3.15.59c0,.35,0,.44-.06.44s-.12-.13-.12-.55C23.17,7,23.28,7,23.35,7.71Zm1.37-.55c.14.16.25.51.17.51s-.43-.36-.43-.5S24.56,7,24.72,7.16Zm.79.28A1.47,1.47,0,0,1,26,8.74c0,.46,0,.48-.13.34a.82.82,0,0,1-.12-.44,1.72,1.72,0,0,0-.48-1.22C24.91,7,25.08,7,25.51,7.44Zm3.38.09c.13.17.22.33.19.36s-.32,0-.29-.16,0-.16-.11-.24a.46.46,0,0,1-.15-.28C28.53,7.06,28.55,7.08,28.89,7.53Zm-9.73-.14c0,.11-.07.2-.11.2s-.09-.06,0-.25S19.21,7.15,19.16,7.39Zm1.06,0s-.06.05-.12,0S20,7.38,20,7.34,20.22,7.32,20.22,7.43Zm3.48.31a2.57,2.57,0,0,1-.2.77c-.16.41-.2.45-.2.24a1,1,0,0,1,.13-.48,1,1,0,0,0,.08-.62c0-.34,0-.38.07-.3A.48.48,0,0,1,23.7,7.74Zm1.7,0a2,2,0,0,1,.24,1c0,.41,0,.59,0,.45a3,3,0,0,1-.07-.53,1.27,1.27,0,0,0-.24-.61c-.25-.37-.41-.9-.21-.74A2.32,2.32,0,0,1,25.4,7.78Zm1.77-.14c-.08.08-.4-.22-.34-.31s.14,0,.23.09S27.21,7.61,27.17,7.64Zm.57-.2s0,.07.06.07.17.1.25.21.15.21,0,.31-.08.15.15,0,.18-.08.25,0,0,.1-.16.14a1.16,1.16,0,0,1-.93-.33c-.08-.09-.06-.11.13-.11s.22,0,.17-.25,0-.23,0-.2A.12.12,0,0,1,27.74,7.44Zm-12.23,0a1.5,1.5,0,0,0,.69.07.92.92,0,0,1,.82.24,1.92,1.92,0,0,0,.53.29c.08,0,.07.07-.05.24s-.17.24-.21.24a1.61,1.61,0,0,1-.72-.43,1.23,1.23,0,0,0-.63-.29,1.38,1.38,0,0,1-.62-.28C15.09,7.32,15.11,7.31,15.51,7.47ZM26.81,8l.31.2a3.17,3.17,0,0,1-.49-.09c-.43-.11-.54-.17-.71-.44l-.22-.3.4.22Zm5.73-.52a1,1,0,0,1-.69.36,1.24,1.24,0,0,0-.81.43l-.27.25-.23-.23c-.16-.16-.19-.24-.12-.26a3,3,0,0,0,.37-.25c.23-.19.34-.22.88-.23a2.16,2.16,0,0,0,.7-.1C32.51,7.31,32.6,7.32,32.54,7.47Zm-7.38.64c.21.26.41,1.38.22,1.2a1.29,1.29,0,0,1-.15-.52A1.17,1.17,0,0,0,24.8,8c-.38-.39-.38-.39-.1-.24A1.73,1.73,0,0,1,25.16,8.11ZM9.32,8a3.24,3.24,0,0,1,.6.4l.18.19-.39-.08a1,1,0,0,0-.73,0c-.5.19-.67.45-.71,1.1,0,.31-.07.55-.11.55a.84.84,0,0,1-.57-.42L7.44,9.5l-.14.26a1.71,1.71,0,0,1-1.91.44c-.13-.06-.2-.11-.14-.11a.78.78,0,0,0,.52-.7.67.67,0,0,1,.14-.45C6,8.8,6,8.79,5.72,8.79a1.08,1.08,0,0,1-.52-.12C5,8.54,5,8.54,5.62,8.18a1.79,1.79,0,0,1,1.23-.36,3,3,0,0,0,.78-.08A2.73,2.73,0,0,1,9.32,8Zm9.74-.25c0,.14-.12.28-.21.24s-.07-.27.09-.27S19.06,7.69,19.06,7.7Zm4.88.43c-.07.17-.18.42-.23.57a.87.87,0,0,1-.18.3s0-.2.14-.49a3.74,3.74,0,0,0,.21-.7c0-.13,0-.15.1-.08S24,7.89,23.94,8.13Zm17-.32a2.22,2.22,0,0,1,1.23.39c.53.31.54.34.4.46a.75.75,0,0,1-.45.13c-.29,0-.4.1-.24.2s.1.18.13.34c.1.53.14.6.41.71l.25.1-.32.09a1.65,1.65,0,0,1-1.84-.45l-.18-.27-.15.24a.88.88,0,0,1-.6.41,1,1,0,0,1-.06-.47c0-.88-.4-1.26-1.26-1.25a2.92,2.92,0,0,1-.52,0,2,2,0,0,1,.37-.28,2,2,0,0,1,1.58-.43ZM24.34,8a1.25,1.25,0,0,1-.18.54c-.28.54-.38.38-.15-.23C24.16,7.91,24.23,7.84,24.34,8Zm5.32.27c.27.2.33.28.21.28a1.87,1.87,0,0,0-.52.19L29,8.93l-.44-.28-.44-.29.24-.09a1.25,1.25,0,0,1,.56,0c.3,0,.33,0,.22-.09S29.24,8,29.66,8.27Zm-9.9-.12s0,.08-.11.08-.18,0-.18-.08.05-.08.12-.08A.19.19,0,0,1,19.76,8.15Zm4.95.48c.08.23.15.33.26.33s.15.06.15.45v.44l-.38.17c-.22.08-.41.22-.42.31s-.15.18-.28-.15c-.06-.16-.13-.32-.14-.34s.08-.05.19-.05a.72.72,0,0,0,.36-.14.44.44,0,0,1,.24-.13c.13,0,.12-.12,0-.24a.69.69,0,0,0-.62.07c-.18.1-.27.05-.27-.16s0-.13.11-.11.19-.13.33-.41.27-.42.31-.4A1.09,1.09,0,0,1,24.71,8.63Zm2.06.53a7.7,7.7,0,0,1,.64.72.46.46,0,0,0,.31.2c.15,0,.16,0,.11.46a3.33,3.33,0,0,1-.09.49,1,1,0,0,1-.35-.15,1.34,1.34,0,0,0-.86-.2c-.53,0-.55,0-.69-.26s-.13-.26,0-.26.75-.27.72-.4-.41-.2-.64-.08-.25.1-.19-.18.08-.22.23-.17.19,0,.15-.33,0-.37,0-.37A3,3,0,0,1,26.77,9.16Zm-2.85.3a2.33,2.33,0,0,0,.35-.06c.14,0,.19,0,.19.06s-.18.22-.47.22-.26.19-.07.43a.73.73,0,0,1,.12.35c0,.18,0,.18-.21,0a.38.38,0,0,1-.2-.36c0-.33-.15-.29-.25.07a1.75,1.75,0,0,1-.2.45c-.11.13-.12.13-.17-.08a.3.3,0,0,1,.11-.36.51.51,0,0,0,.17-.33V9.73l-.18.17c-.22.19-.56.37-.61.32s.11-.33.44-.47a.84.84,0,0,0,.41-.29,1.4,1.4,0,0,1,.18-.3c.13-.13.14-.13.18.08S23.8,9.48,23.92,9.46Zm-6.48,0,1.76.09.68,0,0,.28a1.09,1.09,0,0,1-.08.3,44.22,44.22,0,0,1-5-.74A16.22,16.22,0,0,1,17.44,9.44Zm15.65,0a24.67,24.67,0,0,1-3.15.54c-2.1.27-2,.26-2,.1s0-.1.07-.07a.46.46,0,0,0,.27,0c.42-.16.53-.2.63-.18a.9.9,0,0,0,.37-.13,3.16,3.16,0,0,1,1-.18A23.41,23.41,0,0,1,33.09,9.39Zm-7.23.42.42-.1.2,0-.22.2a.85.85,0,0,1-.44.21c-.22,0-.25.13-.08.35a.68.68,0,0,1,.08.65c0,.09-.16.13-.42.13s-.42,0-.26-.2.19-.09.37,0,.28,0,.28,0-.06-.08-.13-.08-.15-.08-.23-.52c0-.13,0-.13-.13.08l-.24.52-.14.26L24.86,11a.35.35,0,0,1,.09-.4,1.16,1.16,0,0,0,.21-.35c.06-.19.05-.19-.25.06s-.56.32-.52.11a.91.91,0,0,1,.42-.32c.29-.14.39-.23.44-.42l.05-.25.17.22A.35.35,0,0,0,25.86,9.81Zm-2.32.55c0,.11,0,.2-.07.2s0-.09,0-.2,0-.2.07-.2S23.54,10.25,23.54,10.36Zm1.5,0a1.32,1.32,0,0,1-.18.18l-.2.15.16-.18C25,10.33,25,10.28,25,10.35Zm-5.19.27c0,.13.07.27.09.34s-.06.09-.34.07a1,1,0,0,0-.39,0,5,5,0,0,1-1.3.41,1.9,1.9,0,0,1-.51-.13,1,1,0,0,0-.74,0,.86.86,0,0,1-.68,0l-.29-.11H16a2.8,2.8,0,0,0,.77-.21c.4-.18.51-.2.74-.12a1.21,1.21,0,0,0,1.18-.16,1.21,1.21,0,0,1,.73-.24C19.77,10.4,19.8,10.42,19.85,10.62Zm3.95,0c.22.12.2.24-.05.24a2.66,2.66,0,0,0-.64.17,2.93,2.93,0,0,1-1.74,0,1.1,1.1,0,0,0-.81.16c-.47.23-.93.27-1.12.08a.54.54,0,0,1-.13-.15,1.24,1.24,0,0,1,.4,0,1.2,1.2,0,0,0,.68-.15,1.73,1.73,0,0,1,1.42-.15,1.91,1.91,0,0,0,.84,0c.18,0,.33,0,.36,0s.2.08.2-.05.08-.16.19-.2S23.62,10.55,23.8,10.64Zm.45.23c-.18,0-.23,0-.16-.19s.07-.13.18,0S24.37,10.84,24.25,10.87Zm1.1-.13c0,.06-.05,0-.05-.05s0-.14,0-.1A.18.18,0,0,1,25.35,10.74Zm-.61.11a.31.31,0,0,1,0,.18c-.09.07-.3-.07-.3-.19S24.67,10.69,24.74,10.85Zm2.62.12a1.22,1.22,0,0,0,.69.17c.4,0,.47,0,.29.21s-.7.11-1.15-.11a1.15,1.15,0,0,0-.83-.17c-.36,0-.41,0-.41-.11S26.85,10.68,27.36,11Zm-2.6.28c.2.11.36.17.36.13s.08-.05.19,0a2.21,2.21,0,0,0,.72-.09,1.42,1.42,0,0,1,1.3.17,1.21,1.21,0,0,0,.84.14c.57-.07.62.06.08.24l-.44.14-.4-.2a2.21,2.21,0,0,0-1.63-.12,1.31,1.31,0,0,1-1-.08,2.84,2.84,0,0,0-1.93,0,1.15,1.15,0,0,1-.89.08,2.27,2.27,0,0,0-1.64.12l-.42.2-.49-.13c-.26-.08-.46-.18-.44-.21a1.48,1.48,0,0,1,.64,0,1.31,1.31,0,0,0,.85-.15,1.41,1.41,0,0,1,1.27-.14,2.1,2.1,0,0,0,1.56-.17A1.65,1.65,0,0,1,24.76,11.25Zm-.05.37a1.41,1.41,0,0,0,.8.12c1.42-.16,1.37-.16,1.81.07a1.1,1.1,0,0,0,.83.16c.55-.07.76.08.72.5,0,0-.08.1-.18.1s-.16-.05-.16-.17,0-.17-.27-.11a1.26,1.26,0,0,1-1-.09A1.54,1.54,0,0,0,26,12.06,1.6,1.6,0,0,1,24.7,12c-.72-.24-.9-.25-1.36-.08a2.14,2.14,0,0,1-1.54.15,1.46,1.46,0,0,0-1.29.13,1.28,1.28,0,0,1-1,.11c-.25-.06-.28,0-.28.11s-.28.2-.31,0,.2-.45.7-.38a1.33,1.33,0,0,0,.89-.17,1.27,1.27,0,0,1,.91-.17c1.14.14,1.25.14,1.68,0A2.16,2.16,0,0,1,24.71,11.62Zm-.24.4c.14.07.15.1.06.15a.27.27,0,0,1-.26,0,1.91,1.91,0,0,0-.67,0c-.47,0-.5,0-.36-.08A1.79,1.79,0,0,1,24.47,12Zm-2.81.13c.06,0-.33.26-.52.26a1.29,1.29,0,0,0-.37.12,1.12,1.12,0,0,1-.44.12,1.11,1.11,0,0,0-.37.08.32.32,0,0,1-.3,0c-.1-.07,0-.11.35-.25a5.29,5.29,0,0,0,.66-.29A1.49,1.49,0,0,1,21.66,12.15Zm5.52.1c.17.09.45.22.62.29s.3.15.2.21a.51.51,0,0,1-.34,0,1.7,1.7,0,0,0-.45-.08.71.71,0,0,1-.38-.12.81.81,0,0,0-.39-.12A1.29,1.29,0,0,1,26,12.3l-.22-.11.19,0A2,2,0,0,1,27.18,12.25Zm-5,.08a1.25,1.25,0,0,1,.38.25c.34.29.39.22.06-.11l-.22-.22h.36a1,1,0,0,1,1,.59,1.77,1.77,0,0,1,.18.43.37.37,0,0,0,.12.19c.17.12.09.24-.18.24a1,1,0,0,1-.53-.32c-.35-.33-.43-.32-.16,0s.21.3-.09.3-.38-.12-.87-.57a4.29,4.29,0,0,0-.7-.56.07.07,0,0,1-.08-.07c0-.1.42-.25.56-.2Zm3.92.22a1.7,1.7,0,0,1,.37.46c.06.13.11.2.12.14a1.06,1.06,0,0,0-.13-.34c-.12-.23-.12-.24,0-.24s.57.36.62.68c0,.13.06.49.07.78s0,.53-.08.49a1.44,1.44,0,0,1-.45-.78c-.06-.2-.06-.19,0,.1s0,.35-.18.3c-.38-.09-.58-.36-.72-1a6.49,6.49,0,0,0-.17-.7C25.49,12.25,25.81,12.3,26.13,12.55Zm-9,.08.25.12-.2.1a1.63,1.63,0,0,0-.42.56l-.22.45h.27c.39,0,.42.12.08.43a.67.67,0,0,0-.3.62,1,1,0,0,0,1.08,1c.35,0,.35,0,.22.17s-.21.29-.3.43l-.16.24.42.14a8.24,8.24,0,0,0,1.05.22c.5.07.69.13.85.28l.21.2-.2.37a1.77,1.77,0,0,1-1.21.82l-.31,0,0-.55c0-.31.08-.69.11-.86l.05-.31-.52.33a9,9,0,0,1-1.24.57,5.77,5.77,0,0,0-1,.45,2.28,2.28,0,0,0-.81,1.09c0,.18-.08.18-.45,0a.88.88,0,0,1-.54-1.2,2.62,2.62,0,0,1,.43-.5l.33-.34-.42-.06a3.65,3.65,0,0,1-1.53-.65,4.74,4.74,0,0,1-.39-.69A2.13,2.13,0,0,1,12,15.12a2.46,2.46,0,0,1,0-.6s.27.12.62.45a3,3,0,0,0,2.16,1,2.16,2.16,0,0,0,.64-.06c.08-.07-.08-.34-.5-.87-.63-.81-.74-1.16-.5-1.72.16-.38.28-.42.36-.11l.07.26.18-.28a1.44,1.44,0,0,1,.83-.69A1.69,1.69,0,0,1,17.1,12.63Zm15.12,0a1.46,1.46,0,0,1,.46.49l.2.34.11-.27L33.1,13l.15.19a1.56,1.56,0,0,1,.16.64.88.88,0,0,1-.21.77c-1,1.4-1,1.34-.75,1.42a2.64,2.64,0,0,0,1.6-.22A5.78,5.78,0,0,0,35.14,15l.61-.56,0,.29a2.47,2.47,0,0,1-.35,1.64c-.28.54-.36.62-.78.83a4.91,4.91,0,0,1-1,.33l-.54.09.31.23a1.84,1.84,0,0,1,.63.95,1.12,1.12,0,0,1-.59.79c-.42.22-.57.21-.57,0a2.09,2.09,0,0,0-.82-1.07,4.1,4.1,0,0,0-.66-.31,13.71,13.71,0,0,1-1.78-.81c-.12-.08-.25-.12-.27-.09a1.71,1.71,0,0,0,.09.57,1.75,1.75,0,0,1,.07.81l-.08.28L29,18.76a1.88,1.88,0,0,1-.73-.44c-.29-.3-.38-.57-.12-.34.51.46.77-.43.43-1.48a2.57,2.57,0,0,1-.13-.53,1,1,0,0,1,.35.15,1.59,1.59,0,0,0,1.55,0,1.67,1.67,0,0,0,.85-1,.94.94,0,0,0-.42-.91c-.25-.13-.15-.3.21-.34l.23,0L31,13.37a1.36,1.36,0,0,0-.42-.53l-.19-.09.19-.11A1.76,1.76,0,0,1,32.22,12.66Zm-11.78.85a3.16,3.16,0,0,1,.44.52c0,.09-.22.08-.59,0s-.34-.07-.46,0-.08.31.12.31.13,0,0-.08,0-.19.29-.13.38.22.08.49a.9.9,0,0,1-1.28-.19,1,1,0,0,1,.05-.89,1.5,1.5,0,0,1,.77-.49A1.89,1.89,0,0,1,20.44,13.51Zm2.53.9a1,1,0,0,1,.08,1.18c-.25.55-.5.68-1.28.68A11.61,11.61,0,0,1,19.5,16c-.07-.07.4-.87.57-.95s.13,0-.07.33c-.3.57-.2.59.2,0a2.61,2.61,0,0,1,2.08-1.23A.76.76,0,0,1,23,14.41Zm1.85.44a.88.88,0,0,1-.5.2c-.29.07-.44.14-.44.22a1.68,1.68,0,0,1-.71,1c-.21.15-.36.28-.33.29a7.71,7.71,0,0,0,1.77-.35L25.5,16c.11,0,.14,0,.08,0a21.81,21.81,0,0,1-3.32.83,13,13,0,0,1-4,.05,4.36,4.36,0,0,1-.57-.18c-.12-.12.8-1,1.53-1.54s.64-.3,0,.13a6.47,6.47,0,0,0-.87.77c-.35.4-.36.44-.22.51a5.92,5.92,0,0,0,1.84.25c1.87,0,3.29-.58,3.59-1.46.1-.32.13-.34.65-.47C24.9,14.72,24.87,14.72,24.82,14.85Zm.12.94h.31l-.34.15c-.3.14-.87.21-.87.11a1.49,1.49,0,0,1,.37-.58l.17-.19,0,.25C24.63,15.76,24.66,15.79,24.94,15.79ZM9,16c0,.07-.08.12-.2.12s-.29.13-.31.42,0,.17-.08,0c-.14-.31-.1-.52.11-.52A.75.75,0,0,0,8.84,16C9,15.84,9,15.84,9,16Zm.74.08c0,.06-.18.2-.41.3s-.39.15-.34.07A3.27,3.27,0,0,1,9.74,16,.68.68,0,0,1,9.75,16.07Zm.63.29c-.05.15,0,.16.15.13s.22,0,.22,0-.57.19-.64.13.19-.46.27-.46S10.4,16.27,10.38,16.36Zm-2.47,0a.36.36,0,0,1,.1.22c0,.09,0,.08-.12,0a.22.22,0,0,0-.25-.1c-.13.05-.18,0-.07-.13A.25.25,0,0,1,7.91,16.36Zm29.63.26c.2.19.21.19.47.07a1.91,1.91,0,0,1,1.56,0,1,1,0,0,0,.49.18,1.68,1.68,0,0,1,1.18.83c.16.29.24.36.36.33a.71.71,0,0,1,.39.05c.25.1.25.11.19.55a1.93,1.93,0,0,1-.52,1.25,1.34,1.34,0,0,0-.3.53,1.43,1.43,0,0,1-1.19,1.24c-.77.13-.93.2-.93.4a.79.79,0,0,1-.24.46c-.22.25-.28.27-.77.26a1.79,1.79,0,0,1-1.39-.56,1.09,1.09,0,0,1-.08-1,.31.31,0,0,0,0-.39l-.43-.58a1.32,1.32,0,0,1-.12-1.48,2.1,2.1,0,0,0,.17-.73,2.23,2.23,0,0,1,.45-1.3C37.06,16.38,37.26,16.35,37.54,16.62Zm-30.06.25c.2.3.08.34-.14.05s-.14-.25-.09-.25S7.4,16.76,7.48,16.87Zm4.23.08a2.08,2.08,0,0,1,0,1.35c-.1.19-.1.27,0,.56s.1.67-.2,1.43-.34.9-.13,1.33.25.66,0,1a1.63,1.63,0,0,1-1.3.65c-.65,0-.84-.13-1.07-.74L8.83,22,8,21.56c-.76-.41-.82-.45-1-.9s-.3-.48-.51-.57a1.71,1.71,0,0,1-.83-1c-.12-.32-.12-.34,0-.42a1.17,1.17,0,0,1,.8-.05c.24.06.27,0,.32-.19a1.23,1.23,0,0,1,1.33-1c.3,0,.41,0,.55-.16a1.54,1.54,0,0,1,.92-.41,2.17,2.17,0,0,1,.63.2l.44.19.13-.23C11.09,16.61,11.54,16.55,11.71,17ZM7,17a.28.28,0,0,1,0,.25c0,.13-.06.13-.13,0s-.11-.18-.3-.13-.21.05-.06-.07S6.88,16.88,7,17Zm13.43.63a7.94,7.94,0,0,1,1.75,3.7c.11.47.2.87.2.9s-.07,0-.17,0-.16-.05-.16-.3a8.55,8.55,0,0,0-.53-2.19,7.51,7.51,0,0,0-1.34-2.07c-.38-.4-.44-.5-.31-.5A1.36,1.36,0,0,1,20.43,17.65Zm4.43-.26a2.59,2.59,0,0,1,.51.53,7.67,7.67,0,0,0,.67.76l.31.3-1,1a10.64,10.64,0,0,1-2,1.7c-.16.08-.19.08-.22-.08s-.18-.78-.34-1.49c-.34-1.44-.34-1.72,0-2.13A2.12,2.12,0,0,1,24.86,17.39Zm6.38.81a4.24,4.24,0,0,1,.88.4l.19.15h-.19a.68.68,0,0,0-.39.19c-.14.13-.23.16-.29.11a2.77,2.77,0,0,0-.52-.29,1.16,1.16,0,0,1-.58-.48L30.21,18l-.22.36a1.58,1.58,0,0,0,.28,2.07l.26.23-.18.24a.61.61,0,0,0-.14.55c0,.3,0,.31-.18.28s-.21-.05-.22-.57a3,3,0,0,0-1-2.05c-.27-.3-.49-.56-.49-.57a1.4,1.4,0,0,1,.4.16,3.55,3.55,0,0,0,.65.24c.25.05.27,0,.33-.24a2.81,2.81,0,0,0-.1-1.12l-.06-.23.53.29C30.32,17.81,30.87,18.05,31.24,18.2ZM6.67,17.72c-.2.12-.25.08-.09-.07s.16-.11.17-.07S6.73,17.68,6.67,17.72Zm5.66.64a.43.43,0,0,0,.1.3c.07.07.06.1,0,.1s-.14-.07-.14-.23a2.7,2.7,0,0,0-.05-.41c0-.16,0-.18,0-.08A.58.58,0,0,1,12.33,18.36Zm.11.73c.23.13.24.15.08.15s-.45-.27-.43-.44,0,0,.05,0A.74.74,0,0,0,12.44,19.09Zm16.33.17c.94,1.1,1.16,2,.71,2.93a1.56,1.56,0,0,1-.25.43.81.81,0,0,1,.14-.33,2.27,2.27,0,0,0,.16-1.49,5.35,5.35,0,0,0-1.07-1.64c-.23-.25-.31-.4-.24-.4A1.7,1.7,0,0,1,28.77,19.26Zm4,.21c.08.25,0,.31-.28.16a.55.55,0,0,1-.22-.69c0-.12.08-.1.25.1A1.22,1.22,0,0,1,32.81,19.47Zm-5.91.07a2.92,2.92,0,0,1,.37.34,1.86,1.86,0,0,1-.43.34c-.24.17-.9.74-1.49,1.26-1.11,1-1.4,1.22-1.81,1.22-.26,0-.58-.24-.58-.45a2.35,2.35,0,0,1,.65-.57,20.9,20.9,0,0,0,1.69-1.45,11.36,11.36,0,0,1,1.13-1A2,2,0,0,1,26.9,19.54Zm9.74,1.59a4.38,4.38,0,0,0-.11.43l-.07.27-.22-.17c-.24-.19-.49-.23-.49-.08s.65.73.75.67.23.07.39.21a1.89,1.89,0,0,0,1.34.49,1,1,0,0,0,1.06-.64c.11-.23.23-.36.37-.39l.37-.08c.15,0,.15,0,0,.05s-.18.24.11.24.24,0,.21.1-.11.1-.19.08c-.45-.07-.49-.06-.46.15a.32.32,0,0,0,.11.24c.06,0,0,.08-.11.09-.33,0-.23.26.18.39.58.18.61.22.55.63a4.34,4.34,0,0,1-.19.75c-.11.35-.19.43-.39.39,0,0-.08.05-.1.12s-.2.07-.2-.12A.65.65,0,0,0,39,24.4c-.3,0-.33.28-.06.39s.22.12.22.2-.08.15-.31-.06l-.19-.17V25a.67.67,0,0,0,.31.47c.28.25.31.25.42.11a.66.66,0,0,0,.1-.26c0-.11,0-.12.08,0a.25.25,0,0,1,0,.22c0,.08,0,.13.13.17a.21.21,0,0,1,.18.23c0,.1,0,.19-.08.19a1.93,1.93,0,0,0-.75.8c0,.28.16.26.45,0s.4-.31.5,0c0,.16,0,.18-.14.14a.28.28,0,0,0-.3.06c-.11.13-.05.38.09.38s0,0,0,.1a.44.44,0,0,0-.08.28c0,.25.33.24.55,0l.17-.2.13.25c.13.24.12.26-.08.53s-.24.58,0,.43a.41.41,0,0,0,.21-.24c0-.09.09-.14.13-.12s0,.15,0,.28c-.11.3,0,.53.27.51s.22.05-.2.41-.37.35-.31.57.12.25.34.26a.54.54,0,0,0,.46-.13c.11-.1.21-.15.24-.11s0,.09-.11.16a.36.36,0,0,0-.16.21c0,.07-.09.13-.19.16a1.37,1.37,0,0,0-.64.9c0,.25.08.44.18.44a.4.4,0,0,1,.2.12c.32.31.85,0,.92-.6a.57.57,0,0,0-.18-.58l-.23-.27.19,0c.24,0,.25,0,.63,1.07.31.87.32.9.76,1.21s.44.31.24.34-.29.23-.15.7c.09.29,0,.45-.12.38s-.12,0-.12.36,0,.4-.29.53-.39.45-.08.73.28.61,0,.61a.22.22,0,0,0-.2.16c0,.09-.08.16-.14.16s-.08-.1,0-.32,0-.32-.08-.32-.26.37-.15.75a.64.64,0,0,1,0,.55c-.15.29-.15.35,0,.53s.16.18-.62.69c-.14.1-.14.11,0,.39s.5.52.7.37a.78.78,0,0,0,.33-1.06,1.05,1.05,0,0,1,0-.9c.11-.16.11-.18,0-.24s-.14-.06,0-.22l.21-.16.05.19a1.76,1.76,0,0,1,.07.4,2,2,0,0,0,.21.58c.1.22.15.4.11.42a.31.31,0,0,0-.05.24.46.46,0,0,1-.08.3c-.13.16-.07.3.14.3s.34-.16.34-.45,0-.26.28-.18c.44.14.54.32.49.89s-.15.75-.32.62-.3,0-.19.18.15.15.41.12.43.06.35.78c0,.37-.06.44-.11.31a.59.59,0,0,0-.27-.27.94.94,0,0,1-.35-.32c-.22-.31-.35-.35-.5-.12a.54.54,0,0,0,0,.52c.1.36.25.37.25,0v-.21l.24.25a.9.9,0,0,1,.28.63c0,.53-.14.56-.22,0s-.12-.48-.34-.27a.37.37,0,0,0-.07.39.67.67,0,0,0,.47.57c.36.19.47.11.48-.38,0-.33,0-.38.08-.23a1.42,1.42,0,0,1,0,.77,1,1,0,0,1-.39.44,1.71,1.71,0,0,0-.43.42,1,1,0,0,1-.32.3c-.22.11-.24.11-.32,0a.35.35,0,0,0-.24-.14q-.26,0-.12-.36a1,1,0,0,1,.39-.29c.18-.09.31-.18.29-.2a.83.83,0,0,0-.38.12c-.24.12-.36.24-.4.39-.08.38-.1.42-.24.42s-.12,0-.1,0-.1-.27-.28-.27-.16-.06-.16-.17a.55.55,0,0,1,.46-.55c.16,0,.29-.12.29-.16s-.46.09-.67.26a.55.55,0,0,0-.16.38q0,.24-.12.24c-.08,0-.13-.07-.13-.17a.22.22,0,0,0-.16-.21c-.12,0-.17-.11-.17-.26,0-.32.34-.57.8-.57a.81.81,0,0,0,.4-.06s-.11,0-.3,0-.32,0-.32-.09.15-.25.68-.3.49,0,.53.08,0,.13,0,.14l-.19.1c-.11.08-.11.09,0,.16s.36.06.49-.19,0-.5-.19-.48-.14-.05-.13-.16,0-.12,0-.07.19,0,.19-.17-.08-.32-.2-.21-.12,0-.16-.25a2.26,2.26,0,0,0-.82-1.34,7.21,7.21,0,0,1-1.36-1.43,1.58,1.58,0,0,0-.59-.57c-.67-.32-.81-.94-.57-2.43a4,4,0,0,0,.06-1.73s-.05.2,0,.5l0,.54-.37-.6a8.2,8.2,0,0,0-.76-1,5.77,5.77,0,0,1-.38-.45s.08-.06.18-.08.13-.07-.25-.55-.38-.53-.26-.5a.17.17,0,0,0,.22-.09.22.22,0,0,1,.2-.13c.1,0,.14,0,.11-.12s.24-.16.38,0,0,.37-.29.37c-.15,0-.3,0-.33.08s.13.4.32.4c.43,0,1.07-.68.89-1a1.35,1.35,0,0,0-.44-.25l-.4-.17-.35.17a3.6,3.6,0,0,0-.5.3c-.08.06-.16.1-.18.09a17.23,17.23,0,0,1-1-1.62c0-.05.11-.06.28,0l.28.05-.11-.3c-.14-.42-.33-.43-.43,0l-.08.31-.4-.77L35,28l.24-.21c.14-.11.28-.18.32-.15s0,.07-.1.11a.24.24,0,0,0,0,.45.34.34,0,0,0,.27-.09c.13-.13.13-.15,0-.38s-.15-.24.06-.31a1.07,1.07,0,0,1,.29-.08c.15,0,.41-.32.4-.51s0-.16-.11,0-.26.38-.51.38a.7.7,0,0,0-.38.21,5.35,5.35,0,0,1-.82.61,5.37,5.37,0,0,0-1.46,1.27A1.75,1.75,0,0,0,33,30a.85.85,0,0,0,.22.68c.2.23.2.26.07.38a.32.32,0,0,0-.08.28c.09.26-.19.18-.37-.11s-.17-.2-.17-.14a.65.65,0,0,0,.5.53c.14,0,.25.1.25.16,0,.22-.1.34-.25.3a.22.22,0,0,0-.24.13c-.23.41-.59.09-.59-.54a.9.9,0,0,0-.09-.42c-.07-.08-.08-.06,0,.12s.05.41.06.61l0,.36-.36,0c-.53,0-.64-.3-.34-1,.08-.21.09-.28,0-.36s-.1,0-.1.17a.81.81,0,0,1-.11.42c-.1.12-.12.12-.31,0l-.2-.16.14-.39a2.66,2.66,0,0,0,.15-.53c0-.07.09-.17.2-.21s.26-.14.05-.37l-.18-.17.25-.05c.31-.06.47-.31.34-.53s-.27-.21-.42,0-.08.11,0,.08.07,0,.05.11-.36.23-.36.08a3.91,3.91,0,0,1,.54-1c.11-.13.44-.67.75-1.18a9.2,9.2,0,0,1,.63-1s.08.07.08.2-.05.27-.21.32a.28.28,0,0,0-.21.29c0,.29.28.25.55-.08a.62.62,0,0,0,.17-.61c0-.34.05-.42.21-.16s.24.2.39.06a.55.55,0,0,1,.32-.1.41.41,0,0,0,.33-.18c.11-.15.11-.18,0-.32a2.51,2.51,0,0,0-.32-.25c-.11-.08-.12-.09,0-.06s.25-.14.15-.4-.11-.27,0-.27a.74.74,0,0,1,.34.23c.22.22.23.25.13.52s-.06.44.13.29.28-.36.15-.75-.45-.66-.67-.57a1.46,1.46,0,0,1-.3.07c-.27,0-.34.23-.19.53s.17.34,0,.27,0,0,0,.1.13.17,0,.33a.36.36,0,0,0-.08.26c0,.05-.08,0-.25-.06s-.29-.16-.25-.3.1-.35.16-.56.17-.53.24-.69a1.09,1.09,0,0,0,.09-.49.58.58,0,0,1,.09-.42c.14-.2.14-.21,0-.26s-.35.07-.47.31,0,.73.13.67.09,0,0,.26-.17.51-.24.78l-.15.48-.07-.36a3,3,0,0,1,.29-2,4.35,4.35,0,0,0,.34-.93,2.16,2.16,0,0,1,.47-1s.08.05.08.18c0,.32.17.52.45.52s.49-.17.34-.23c-.36-.13-.5-.25-.53-.45s0-.22.15-.26a.24.24,0,0,0,.17-.23c0-.11.16-.31.43-.54l.43-.37.37.45C36.56,20.82,36.67,21,36.64,21.13ZM6.05,20.45a.2.2,0,0,1,.14-.08s0,.07-.1.16-.21.2-.27-.16l-.05-.29.11.24C6,20.46,6,20.51,6.05,20.45Zm6.8-.12a1.45,1.45,0,0,1,.74.72l.17.32-.45-.45a5,5,0,0,0-.65-.57C12.39,20.17,12.51,20.17,12.85,20.33Zm0,.29a.84.84,0,0,1,.39.52s-.14-.07-.31-.22a5.05,5.05,0,0,0-.52-.43l-.21-.14.21.06A1.59,1.59,0,0,1,12.85,20.62Zm-.31.16c.08.08.1.15.05.15a.21.21,0,0,1-.14-.07.52.52,0,0,0-.3-.13q-.26-.06-.15-.12A.46.46,0,0,1,12.54,20.78Zm9.29.58A6.93,6.93,0,0,1,22,22.41c0,.34-.14.93-.25.93a2.08,2.08,0,0,1-.38-.79,3.71,3.71,0,0,1,.09-1.69c.08-.19.17-.32.21-.28A3.59,3.59,0,0,1,21.83,21.36Zm-15.57.17c-.13.49-.15.52-.15.26s.2-.93.27-.85A2.14,2.14,0,0,1,6.26,21.53Zm7.61.55a2.67,2.67,0,0,1,.62.42c.2.21.19.21-.13,0a4.37,4.37,0,0,0-.87-.46,6.67,6.67,0,0,1-1.33-.64A13.21,13.21,0,0,1,13.87,22.08ZM41,21.77c0,.16-.07.27-.11.23s-.15-.11-.29-.14l-.24-.06.24-.12a1.32,1.32,0,0,0,.32-.19C41.06,21.37,41.09,21.45,41,21.77Zm-34.32,0a2,2,0,0,0-.3.38c0,.08,0,0,0-.08a.62.62,0,0,1,.56-.55A1,1,0,0,1,6.7,21.75Zm6.71.42a3,3,0,0,1,1.25.86c.08.13,0,.11-.26-.11a8.69,8.69,0,0,0-1.21-.69,5.86,5.86,0,0,1-.94-.53c-.05-.06.09,0,.34.1A8.11,8.11,0,0,0,13.41,22.17Zm6.16,0a1.65,1.65,0,0,0,.89.32c1.07.12.52.17-2,.17H15.82v2.06l-.33.15c-.2.08-.35.2-.37.33s-.09.19-.14.19-.07-.06,0-.15a3.59,3.59,0,0,0,.09-.86c0-.4.05-.9.08-1.14a1,1,0,0,0-.08-.65c-.15-.31-.19-.3,1.33-.46.69-.06,1.4-.15,1.61-.2A2,2,0,0,1,19.57,22.13Zm6.3-.18a2.09,2.09,0,0,1,.66.6,3.56,3.56,0,0,1-.93.07h-.94l.46-.41.5-.4A1,1,0,0,1,25.87,22Zm4.78,0c.27,0,.92.12,1.43.17a4.66,4.66,0,0,1,1,.16s-.05.12-.18.16a.31.31,0,0,1-.4-.08c-.19-.17-.46-.1-.46.12s.82.37,1.13.16c.11-.08.2-.09.24-.05a.1.1,0,0,1,0,.13c-.14.08-.1.34,0,.42s.13.11,0,.33l-.11.25-.26-.21c-.32-.26-.52-.22-.5.09A2.13,2.13,0,0,0,33,24.79l.21.16-.21,0c-.11,0-.4-.15-.64-.26-.49-.23-.54-.38-.23-.67s.27-.36.1-.46-.35-.49-.24-.6-.07-.3-.32-.3-.15,0-.12-.09-.19-.4-.35-.4a.7.7,0,0,0-.28.09c-.17.08-.17.09,0,.24s.14.16-.65.14c-.45,0-.73-.05-.63-.08s.29-.29.17-.4,0-.32.18-.28Zm-22.81.08s-.09.08-.2.08-.59.33-.84.81-.26.36,0-.19a1.81,1.81,0,0,1,.42-.6C7.45,22,7.84,21.91,7.84,22.05Zm0,.62a4.2,4.2,0,0,0-.65,1.15c-.06.19-.06.19-.07,0a2.17,2.17,0,0,1,.65-1.27C8.13,22.21,8.15,22.24,7.82,22.67Zm23.53-.3c-.16.11-.25.11-.25,0s.09-.08.19-.08S31.45,22.31,31.35,22.37Zm-24,.26a3.06,3.06,0,0,0-.56,1.09l-.08.3,0-.35a1.86,1.86,0,0,1,.52-1.08C7.53,22.3,7.56,22.32,7.32,22.63Zm5.76.47c1,.53,1.35.95,1.45,1.7l.05.35-.24-.49A3.93,3.93,0,0,0,12.74,23a3.55,3.55,0,0,1-.74-.58c0-.06.1,0,.23.11A6.35,6.35,0,0,0,13.08,23.1Zm27.56-.45c-.13.19-.22.26-.35.22s-.16,0,0-.09a1.27,1.27,0,0,0,.32-.24C40.84,22.29,40.85,22.33,40.64,22.65Zm-6.9.18c0,.08-.05,0-.05-.13s0-.22.05-.15A1.31,1.31,0,0,1,33.74,22.83ZM13.2,22.76c.71.35,1.38,1,1.37,1.39,0,.06-.11-.06-.23-.29s-.35-.47-1-.87S12.54,22.44,13.2,22.76Zm8.13.2a1.18,1.18,0,0,0,.23.4c.14.19.23.22.56.22a4.15,4.15,0,0,0,1.82-.53l.53-.27h7.3v2.66c0,2.56,0,2.66-.18,2.89l-.16.23H16.33l-.15-.22c-.14-.2-.16-.43-.16-2.27,0-1.12,0-2.33,0-2.67l.05-.62h5.19ZM46.68,23a.66.66,0,0,1,.06.74c-.08.07-.1,0-.1-.08,0-.32-.24-.3-.62.06s-.41.33-.55.31-.2,0,0-.13a.34.34,0,0,0,.09-.59c-.12-.09-.09-.12.19-.29S46.48,22.81,46.68,23Zm-38.46.43a1,1,0,0,0-.29.37c0,.06,0,.09,0,.07s.19-.53.35-.62S8.52,23.18,8.22,23.45Zm3.13.45a2,2,0,0,0-.46.52c0,.1,0,.06-.05-.1s.05-.3.36-.51a1.18,1.18,0,0,0,.43-.46l.07-.21,0,.2C11.75,23.49,11.68,23.61,11.35,23.9Zm1.59,0c.88.66,1.18,1,1.33,1.49a3.85,3.85,0,0,0,.4.78c.16.22.54.81.85,1.32s.69,1.12.85,1.36c.29.44.29.45.24,1.1A2.28,2.28,0,0,0,16.7,31c.15.45.15.46,0,.57a.52.52,0,0,1-.21.12c-.08,0-.25-.39-.25-.59s0-.16-.09,0,0,.22.05.43.17.73,0,.81a1.19,1.19,0,0,1-.42.08h-.32v-.33a2.28,2.28,0,0,1,.09-.6c.06-.23.06-.26,0-.18a.7.7,0,0,0-.13.49.76.76,0,0,1-.13.51c-.17.16-.37.17-.37,0s-.1-.15-.24-.17c-.33-.06-.4-.34-.12-.44a1.22,1.22,0,0,1,.28-.07c.1,0,.35-.47.32-.58s-.12,0-.22.2c-.19.32-.45.41-.37.13a.36.36,0,0,0-.06-.28c-.09-.1-.09-.17.06-.34A1.41,1.41,0,0,0,14.4,29a10.19,10.19,0,0,0-1.12-.86,7.42,7.42,0,0,1-1-.73.38.38,0,0,0-.3-.14.57.57,0,0,1-.52-.45c0-.08,0,0,0,.13s.05.28.36.4a2.36,2.36,0,0,1,.65.37c.29.23.31.29.27.54-.13.77-.61,1.3-1.86,2A3.37,3.37,0,0,0,9.35,31.7c-.08.21-.07.24.08.24s.19.13-.13.36a3,3,0,0,0-.54.58l-.24.36L8.46,33a2,2,0,0,1,0-.75c.11-.57.06-.76-.07-.28a4.43,4.43,0,0,0,.2,2.38,8.31,8.31,0,0,1,.29,1.42,3.06,3.06,0,0,1-.75,1.88,11,11,0,0,0-.73.9,8.61,8.61,0,0,1-1,1.07,2.6,2.6,0,0,0-1.1,1.78c-.13.69,0,.88.41.83s.68.08.68.27-.07.12-.35.08-.35,0-.19.07a.54.54,0,0,0,.37.09A.65.65,0,0,1,7,43.1c.1.25,0,.35-.16.43a.26.26,0,0,0-.15.22c0,.26-.14.18-.2-.11s-.22-.48-.62-.6c-.24-.08-.27-.08-.18,0a.4.4,0,0,0,.22.12.6.6,0,0,1,.45.52c0,.15,0,.2-.18.2a.2.2,0,0,0-.21.16c-.07.23-.2.16-.31-.16s-.75-.8-.86-.68.06.16.47.37.37.55.09.55a.3.3,0,0,0-.23.13c-.07.12-.1.12-.33,0s-.27-.19-.27-.28-.14-.24-.33-.36c-.52-.33-.56-.44-.62-1.74a3.17,3.17,0,0,1,.08-1.46,3,3,0,0,0,.12-.81c0-.57,0-.63.51-.77.89-.28,1.14-1.19.86-3.15-.06-.46-.12-1-.12-1.22v-.38l-.48.29c-1.48.84-2.75.82-3.68-.08A2.18,2.18,0,0,1,.12,32.6c0-1.14.57-2.13,2.1-3.6A6.5,6.5,0,0,0,3.9,26.9c.07-.31.19-.43.41-.43s.41.19.25.66c-.24.72-.53,1.11-1.72,2.28A6.37,6.37,0,0,0,1,32a1.49,1.49,0,0,0,.13,1.49c.69,1.14,2,1.12,3.69,0,.44-.3.47-.34.7-1a40,40,0,0,1,1.85-4.48,7.65,7.65,0,0,0,.52-1.22c0-.13,0-.19.16-.19s.47-.33.32-.4a.35.35,0,0,1-.12-.26c0-.22,0-.22.22-.1a1.42,1.42,0,0,0,.47.12c.21,0,.21,0,.09-.14s-.2-.43,0-.28.41.12.39,0a.6.6,0,0,1,0-.19c0-.14.76.58.76.73s.24.16.5-.1a.65.65,0,0,0,.24-.52c0-.25,0-.27.21-.23s.46-.1.46-.27a.12.12,0,0,0-.13-.11c-.2,0-.14-.15.12-.28a1.21,1.21,0,0,0,.67-.86c0-.13,0-.23.05-.23A6.56,6.56,0,0,1,12.94,23.85Zm-1.79-.25c-.13.1-.32.25-.44.33s-.2.19-.17.32,0,.16-.06,0,0-.42.32-.56l.37-.18C11.39,23.37,11.38,23.42,11.15,23.6Zm-2.83.21a3.15,3.15,0,0,0-.54,1.76c0,.25,0,.32,0,.22a2.55,2.55,0,0,1,0-1.39,2.22,2.22,0,0,1,.38-.56C8.52,23.52,8.59,23.5,8.32,23.81ZM45,24c-.15.42-.12.54.16.54a1,1,0,0,0,.45-.12c.13-.08.23-.09.25,0s-.17.19-.42.33c-1,.54-1.36.95-1.36,1.55v.29l-.21-.2c-.25-.22-.31-.23-.54-.12s-.16.06-.16,0-.06-.06-.13,0-.12,0-.12-.26,0-.29.1-.15.13.23.27.12.13-.07.13,0,.35.11.52,0,.23-.57,0-.61-.15,0-.15.18,0,.23-.08.25-.08-.05-.08-.18v-.22l-.17.2-.17.2,0-.21c.07-.3-.1-.36-.25-.1s-.13.22-.08,0a3.34,3.34,0,0,1,.87-1.22c.23-.15.27-.16.22,0a.39.39,0,0,0,.08.33.85.85,0,0,1,.09.45c0,.15,0,.28.07.29s.2-.28.15-.74a.59.59,0,0,1,.22-.68C45,23.51,45.13,23.58,45,24ZM3,24.18a3.76,3.76,0,0,1,1,.24,1.25,1.25,0,0,1,.47,1.1V26l-.1-.4c-.22-.87-.52-1.12-1.43-1.19-.69-.06-.94-.18-1.19-.54-.13-.19-.12-.19.19,0A2,2,0,0,0,3,24.18Zm5.73-.26a2.32,2.32,0,0,0-.19.74c0,.44,0,.46-.11.25a1.29,1.29,0,0,1,.2-1.05C8.83,23.59,8.87,23.61,8.71,23.92ZM3.93,24a1.35,1.35,0,0,1,.75,1.33l0,.45-.06-.44A1.43,1.43,0,0,0,3.17,24a2.33,2.33,0,0,1-.59-.1c-.22-.1-.19-.1.37-.07A2.39,2.39,0,0,1,3.93,24ZM9.1,24c0,.1-.12.32-.16.47l-.08.29v-.27A1.16,1.16,0,0,1,9,24C9.12,23.69,9.21,23.71,9.1,24Zm24-.15a.25.25,0,0,1,.08.32l-.06.22L33,24.05C32.86,23.72,32.89,23.67,33.12,23.84ZM10.36,24.92a1.37,1.37,0,0,1,.14.4c0,.08-.12-.08-.24-.37a1.3,1.3,0,0,1-.19-.77c0-.22.06-.21.1.12A1.88,1.88,0,0,0,10.36,24.92Zm-.49-.62a.82.82,0,0,0,.09.49l.13.28-.17-.2a.65.65,0,0,1-.12-.68C9.89,24,9.92,24.05,9.87,24.3Zm-7,.24a1.28,1.28,0,0,1,.67.17,1.5,1.5,0,0,1,.6.94c0,.08-.08,0-.17-.21a1.3,1.3,0,0,0-1.06-.73c-.42-.08-.76-.21-.76-.29s.07,0,.16,0A1.8,1.8,0,0,0,2.83,24.54Zm29.83.37c.52.17.75.72.44,1a9.25,9.25,0,0,0-.66,1l-.51.84V24.54l.21.13A2.8,2.8,0,0,0,32.66,24.91ZM15.9,26.31a13.84,13.84,0,0,1,0,1.45,4.61,4.61,0,0,1-.38-.59c-.19-.31-.48-.76-.63-1s-.27-.46-.24-.51a1,1,0,0,1,.34-.2c.16-.07.29-.15.29-.19s.32-.41.49-.41S15.9,24.92,15.9,26.31Zm-8.4-.62c0,.4,0,.53-.07.42-.13-.27-.09-1,.05-1A3,3,0,0,1,7.5,25.69Zm36,.93s.09.07.1.15,0,.1,0,0-.51-.12-.56,0,.16.31.44.26.42.1.18.25-.25.42-.07.42a.37.37,0,0,0,.21-.1c.08-.08.11-.06.15.08s.08.18.11.18,0,.09,0,.2l0,.21-.24-.25c-.19-.21-.24-.22-.28-.12s0,.3.13.24.07,0,.07,0c0,.35-.58-.47-.75-1.07-.07-.25-.06-.33.06-.49s.19-.17.27-.13A.57.57,0,0,0,43.52,26.62Zm1.27,1.32c.12.13.11.14-.1.14s-.22,0-.2.18.1.19.26.21.23,0,.23-.16.1-.09.67.45c.83.8,1.39,1.43,1.2,1.35s-.15,0-.1.27.09.34.1.37.28.05.3-.12.11,0,.36.46a2.56,2.56,0,0,1,.36,1.35l0,.7h-.27c-.29,0-.58.19-.58.37s.1.17.24.25l.25.16a1.25,1.25,0,0,1-.23.34,3.19,3.19,0,0,1-1.12.81s0,0,.06-.09a.37.37,0,0,0,.14-.31.35.35,0,0,0-.14-.31c-.14-.08-.14-.08,0-.09s.23-.11,0-.32l-.18-.17.27-.32a1.52,1.52,0,0,0,.13-1.67l-.2-.49.2-.13c.25-.16.22-.4-.05-.4a.27.27,0,0,1-.26-.16c-.06-.15-.06-.15-.15,0s-.12.14-.72-.46a3.37,3.37,0,0,1-.62-.75c0-.06.1-.16.25-.2a.5.5,0,0,0,.3-.63c-.05-.12-.08-.12-.25,0a.63.63,0,0,1-.32.17.4.4,0,0,0-.23.12c-.17.2-.3.15-.58-.2l-.26-.32.29.12a1.57,1.57,0,0,0,.52.11c.23,0,.23,0,0,0s-.43-.19-.23-.19.18-.15-.1-.69c-.14-.26-.21-.49-.17-.5s.08-.1.08-.2.1,0,.3.31A6.37,6.37,0,0,0,44.79,27.94Zm-30.91.78a2.8,2.8,0,0,1,.62.65c.2.35.21,1.06,0,1.21a1.35,1.35,0,0,0-.25.33.53.53,0,0,1-.37.28c-.23,0-.24.06-.11.19a.47.47,0,0,0,.3.16c.11,0,.15.05.15.2a.84.84,0,0,0,.09.37c.08.15.07.2-.08.33s-.17.3.06.3a3.52,3.52,0,0,0,.59-.15,1.69,1.69,0,0,1,.57-.11c.12,0,.13.36,0,.49s-.06.09.07.09S16,33,16,32.89s-.05,0-.12,0-.23.07-.16-.19.23-.24.38.25c.07.25.21.75.32,1.11a12.54,12.54,0,0,0,1.76,3.63,1.9,1.9,0,0,1,.23.4,1.81,1.81,0,0,1-.3.38l-.3.31-.45-.23a1.55,1.55,0,0,0-.67-.21.57.57,0,0,1-.45-.19C16,38,15.94,38,15.61,38s-.4,0-.42,0-.46-.07-.75.18l-.31.26-.23-.28a2,2,0,0,1-.58-1.76c0-1.18,0-1.89,0-2.86A2.84,2.84,0,0,0,13,32.08a2.1,2.1,0,0,0-.47-.67,3.76,3.76,0,0,0-1-.24c-.71-.12-1.14-.28-1.14-.42a2.73,2.73,0,0,1,.55-.38c1.15-.65,1.64-1.16,1.86-1.95l.09-.35.25.15A7.1,7.1,0,0,1,13.88,28.72Zm21.39.11c.22.4.6,1.06.86,1.44.35.55.45.76.41.91a4.18,4.18,0,0,1-.76.82,6,6,0,0,0-.9.94,4.47,4.47,0,0,0-.46,2.29c.06,1.64,0,1.87-.16,2.29s-.28.59-.13.4a2.58,2.58,0,0,0,.42-2.13,4.43,4.43,0,0,1,.17-2.11c.19-.7.3-.86,1.08-1.55a4.26,4.26,0,0,0,.79-.83l.09-.19.24.31a1.21,1.21,0,0,1,.25.5.54.54,0,0,0,.19.36c.23.24.2.47-.12.8s-.32.56-.15.53a.12.12,0,0,1,.14.07c0,.07,0,.11-.19.11a.86.86,0,0,0-.46.19c-.21.18-.23.21-.11.27s.12.11,0,.25a.37.37,0,0,1-.26.17.44.44,0,0,0-.35.5c.05.16,0,.17-.54.13s-.69,0-.69.45.2.56.58.49a.9.9,0,0,0,.72-.66,1.1,1.1,0,0,1,.62-.63.14.14,0,0,0,.1-.2c0-.14,0-.15.2-.11s.6-.17.45-.32-.12,0-.19,0-.23.12-.23,0,.1-.17.21-.25.23-.12.36,0a.38.38,0,0,0,.58,0c.11-.2-.1-.44-.38-.45s-.23-.05-.23-.2.24-.4.45-.22a.49.49,0,0,1,.17.3.46.46,0,0,0,.3.48c.11,0,.2.11.2.14a1.45,1.45,0,0,1-.52.29,5.25,5.25,0,0,0-.83.43A2,2,0,0,0,36.5,36c0,.11,0,.17-.11.14s-.18.05-.28.16a.8.8,0,0,1-.28.22c-.06,0-.08.09,0,.17s.45.17.61-.06l.14-.21.19.28a1.1,1.1,0,0,1,.2.4A2.54,2.54,0,0,1,36,38c-.07,0-.14-.08-.18-.17s0-.18-.19,0-.08.37.21.5c.1,0,.18.12.18.18a6.6,6.6,0,0,1-.91,1l-.92.89-.53,0a1.39,1.39,0,0,0-.59,0c0,.08-.38.1-.57,0a.26.26,0,0,1-.13-.23.53.53,0,0,0-.1-.28c-.19-.18.16-.35.64-.3.29,0,.36,0,.21,0-.34-.11-.73-.1-.83,0a.4.4,0,0,1-.27.12c-.12,0-.15,0-.11-.15a.46.46,0,0,0-.05-.32c-.08-.13-.08-.19,0-.29s.22-.13.62-.1l.5.05-.33-.11c-.48-.16-.57-.15-.82.09s-.22.2-.23.18,0-.21,0-.42,0-.4.15-.5.52-.14.83.13a1.14,1.14,0,0,0,.39.24c.06,0,0-.08-.12-.17a.58.58,0,0,1-.21-.28c0-.2.32-.12.66.17s.34.27.34.23,0,0,0,0a.21.21,0,0,1,0,.17c0,.1-.11.12-.25.09s-.28.13-.08.29.17.07.34,0c.34-.15.45-.37.26-.5s-.13-.11,0-.21.13-.09.08,0,.2.09.31-.08,0-.28-.16-.15-.12.08-.12,0-.09,0-.21.12l-.2.19-.3-.26c-.28-.24-.64-.33-.74-.17s-.21,0-.41,0-.4,0-.59.17a.7.7,0,0,1-.47.21,2,2,0,0,0-.66.2l-.42.21-.25-.23c-.42-.39-.42-.43,0-1a13.8,13.8,0,0,0,1.82-4.07c.13-.56.16-.61.27-.52s.48.2.43,0c-.15-.56-.05-.62.62-.38a1.5,1.5,0,0,0,.69.1l.22-.06-.22-.16c-.19-.12-.22-.18-.15-.3a.8.8,0,0,0,.08-.36c0-.16.06-.23.24-.29.34-.12.38-.28.11-.34s-.28-.13-.66-.74,0-1.23.67-1.7a8.43,8.43,0,0,1,1-.67A4.45,4.45,0,0,1,35.27,28.83ZM21.61,29c.11-.09.12-.08.07.08s0,.18,0,.18.07.06,0,.15a.31.31,0,0,0,.1.3c.14.12.15.13.17,0a.45.45,0,0,0-.1-.33c-.16-.23-.16-.29-.05-.29s.35.48.3.62,0,.14.4.23c.19,0,.22.06.12.13a.91.91,0,0,1-.36.08c-.22,0-.2,0,.12.1a2.69,2.69,0,0,1,.54.19c.15.08.14.09-.15.14a1,1,0,0,1-.43,0c-.07,0-.11,0-.08,0s.17.08.33.08a1.54,1.54,0,0,1,.5.08c.3.11.17.28-.16.21-.14,0-.21,0-.16,0a.65.65,0,0,1,.24.58c-.05.16-.09.15-.44-.14s-.37-.28-.2-.07a.67.67,0,0,1,0,.86l-.16.17L22.16,32,22,31.58l-.05.36a.61.61,0,0,1-.26.5c-.31.23-.37.13-.19-.3a1.12,1.12,0,0,0,.09-.42s-.05,0-.05.08-.34.52-.61.59l-.24,0L21,32c.25-.35.28-.41.1-.29a.88.88,0,0,1-.4.14h-.2l.24-.22c.22-.21.23-.23.07-.25s-.13-.06.19-.39a1.1,1.1,0,0,0,.34-.54c0-.15,0-.14-.09.05s-.14.22-.22.22a.36.36,0,0,0-.23.09c-.06.06-.1.05-.14,0s0-.14.2-.2c.39-.13.3-.57-.09-.45a.21.21,0,0,0-.16.17c0,.08-.07.11-.19.09s-.19-.07-.17-.24,0-.2-.13-.17.34-.54.7-.74a3.82,3.82,0,0,0,.47-.33c.1-.12.1-.11.13.05S21.5,29.12,21.61,29Zm4.87.13c.37,0,.6,0,.51,0a1.67,1.67,0,0,0-.35.15.73.73,0,0,1-.52.08c-.38-.05-.38,0-.19.15s.11.15-1.07,0c-.51-.07-.92.08-.88.32s.49.32,2.14.14c.81-.1,1.68-.17,1.93-.17a1.82,1.82,0,0,1,1.18.4c.05.06.17.07.38,0,.37-.06.5.06.21.18s-.28.26-.05.26a.42.42,0,0,1,.25.12c.09.11.06.12-.17.14-.44,0-.46,0-.6.13a3.81,3.81,0,0,1-1.93.16,7.26,7.26,0,0,0-.94,0,3.28,3.28,0,0,0,.51.4,1.44,1.44,0,0,0,.87.37.68.68,0,0,0,.44-.12c.15-.19.24-.15.24.12s0,.24.21.19a1.31,1.31,0,0,1,.44,0l.23.05-.25.13-.25.13.36.07c.5.08.64.22.23.22s-.38.15,0,.27.41.2.23.33-.18.08-.37-.1l-.21-.22,0,.31c0,.17-.07.3-.1.3h-.16c-.06,0-.08-.09,0-.25s0-.24,0-.24-.15.11-.26.24-.28.3-.35.11,0-.19.13-.29l.19-.15-.26,0c-.17,0-.29,0-.31-.08s.29-.23.49-.16.15-.08-.06-.22-.61-.17-.69,0a.68.68,0,0,1-.25.15c-.27.1-1-.27-1.66-.79a2,2,0,0,0-.61-.41c-.09,0-.08,0,0,.08.31.12.29.21,0,.21a2.24,2.24,0,0,0-.51.07c-.17.05-.19,0-.15-.07s0-.17-.38.1a2.23,2.23,0,0,1-1.27.51c-.3,0-.36,0-.39.16a.22.22,0,0,1-.2.21.66.66,0,0,0-.36.29c-.18.29-.42.43-.42.24s-.15-.2-.4,0a2.52,2.52,0,0,1-.54.33c-.3.12-.3.12-.3-.09s-.19-.26-.57,0c-.21.17-.3.2-.35.12a.23.23,0,0,1,0-.21c.06-.16-.13-.22-.41-.11s-.26.08-.36,0-.09-.29.08-.23.23-.13,0-.28-.16-.19-.12-.23.19-.12.41.11.46.21.34,0a.16.16,0,0,1,0-.15s.18,0,.33.19.28.28.6.2a2.14,2.14,0,0,0,.73-.4c.45-.36.49-.37.42-.15s0,.16.12.16a.69.69,0,0,0,.62-.39c.07-.12.12-.16.13-.09a.57.57,0,0,0,.08.24c.12.18.5-.2.5-.51v-.25l.15.17L23,32l.1-.23a.76.76,0,0,0,.06-.4c0-.13,0-.15.76-.21.44,0,1.73-.06,2.86,0,1.78,0,2.09,0,2.27-.12a.42.42,0,0,0,.2-.31c0-.25-.42-.59-.8-.66a2,2,0,0,0-1.31.19,4.1,4.1,0,0,1-.4.29l-.21.13,0-.25,0-.25-.39.29c-.44.32-.6.37-.46.14s.09-.35-.16-.18-.67.35-.67.25a.18.18,0,0,1,.08-.12.18.18,0,0,0,.08-.16c0-.07-.08-.1-.31-.06a1.79,1.79,0,0,1-.64-.08c-.27-.08-.34-.15-.36-.31s.3-.55.58-.55a1.88,1.88,0,0,0,.48-.16,1.67,1.67,0,0,1,.49-.17.41.41,0,0,0,.28-.11c.09-.09.1-.09.13.07S25.84,29.16,26.48,29.16Zm-7.67.17a.53.53,0,0,1,0,.32c-.07.18.1.14.24-.07s.15-.15.23-.08.07.14,0,.31a.52.52,0,0,0-.09.36c.06.18.21.22.21.06s0-.07.1,0,.08.14,0,.26-.08.21,0,.4a1.18,1.18,0,0,0,.95.57l.38,0-.27.16-.27.17.21.09a.57.57,0,0,0,.35,0c.13-.05.13,0,0,.13-.3.34-.45.37-.68.14S20,32,20,32l-.31.08a1.14,1.14,0,0,1-.43,0c-.14,0-.14-.06,0-.2s.17-.16.07-.23a.7.7,0,0,0-.29-.08,1.71,1.71,0,0,1-.42-.12c-.2-.09-.22-.12-.08-.12a.7.7,0,0,0,.29-.09c.1-.05.1-.09,0-.22a.68.68,0,0,0-.34-.21c-.29-.07-.28-.32,0-.26s.21,0,.19-.14a.46.46,0,0,0-.22-.26c-.29-.14-.35-.22-.27-.35s.11-.11.25,0,.18.08.22,0a.3.3,0,0,0-.09-.28c-.13-.13-.13-.18,0-.28S18.72,29.09,18.81,29.33Zm-7.39,1.93a3,3,0,0,1,.93.23,2,2,0,0,1,.81,1.85c0,.36,0,.9.07,1.19a6.24,6.24,0,0,1,0,1.28,3.74,3.74,0,0,0,0,1.1,2.88,2.88,0,0,0,.73,1.42l.25.23.27-.25a1.4,1.4,0,0,1,.45-.3c.28-.09.33.11.07.33s0,.23.33-.05.5-.3.76-.13.18.18.13.41,0,.28.07.28.08,0,0,.09-.16,0-.33-.08-.37-.21-.75-.08-.35.24,0,.13c.53-.13.94.11.68.4-.07.08-.07.15,0,.27s.08.15-.05.15a.37.37,0,0,1-.26-.12c-.11-.13-.58-.14-1,0-.18,0-.22.07-.12.11a1.25,1.25,0,0,0,.49,0c.29-.08.36-.07.51,0s.13.18.07.23a.47.47,0,0,0-.08.26.26.26,0,0,1-.13.23.77.77,0,0,1-.57,0,2.07,2.07,0,0,0-.63-.06h-.55l-.88-.85c-.71-.7-.9-.93-1-1.27a1.1,1.1,0,0,0-.39-.59c-.39-.27-.43-.49-.19-.89s.26-.56,0-1-.52-.61-1.39-1-.94-.49-.94-1,.13-.73.66-1.24.51-.55.28-.67-.12-.09,0-.26a3,3,0,0,1,.4-.45l.27-.25.29.18A1.76,1.76,0,0,0,11.42,31.26Zm3,0c0,.13-.24.2-.44.11s-.11-.06.06-.16S14.45,31.14,14.45,31.3Zm19.24-.05.28.11-.23.05c-.29.08-.49,0-.43-.16S33.35,31.11,33.69,31.25Zm7.56.25c.1.19.1.22,0,.32s-.38.14-.38-.16.07-.33.26-.36C41.1,31.29,41.18,31.39,41.25,31.5ZM17,31.9c0,.16-.1.42-.17.36a.9.9,0,0,1-.1-.31c-.05-.23,0-.26.1-.24A.24.24,0,0,1,17,31.9Zm14.17-.15c.05.1-.15.52-.22.46s-.06-.51.06-.51A.22.22,0,0,1,31.13,31.75Zm-5.54.38a.56.56,0,0,1,.17.35,2.24,2.24,0,0,0,.07.44c.06.2,0,.22-.15.22s-.23.06-.3.24-.23.32-.31.07-.06-.17-.17,0-.24.27-.35.08-.1-.12-.27.09-.19.21-.26.09a.21.21,0,0,1,0-.2c.08-.13-.1-.17-.21,0s-.41.18-.41.09,0-.09-.05-.16,0-.13.06-.13a.62.62,0,0,0,.24-.08c.1-.06.1-.09,0-.18s-.13-.15-.07-.25.09-.12.29,0,.31.2.31,0,.09-.2.3.06.22.19.31.16.19-.42.06-.5a.44.44,0,0,1,0-.47A1.22,1.22,0,0,1,25.59,32.13Zm-10.9.38a.5.5,0,0,1-.3.15c-.14,0-.14,0,0-.24s.21-.22.3-.15S14.8,32.39,14.69,32.51Zm18.66-.09c.13.18.15.24.06.24s-.43-.21-.37-.35S33.14,32.14,33.35,32.42Zm-1.23.32c0,.27,0,.29-.2.11s-.19-.35,0-.35S32.09,32.57,32.12,32.74ZM44.18,33.9c.08.12.1.21,0,.25s-.08.12-.08.21.05.15.44.15.49,0,.61-.19.49-.34.55-.18,0,.14-.12.17-.2.25-.08.66l.08.26h-.44a4.16,4.16,0,0,1-1.67-.42l-.33-.17.32,0c.42-.07.49-.17.45-.56S44,33.62,44.18,33.9Zm-.62.09c.06.07.09.14.06.17s-.4-.13-.35-.22S43.45,33.85,43.56,34Zm-4.71.59a1.11,1.11,0,0,1,.1.54,4.59,4.59,0,0,0-.09,2,1.12,1.12,0,0,0,.7.87,1.14,1.14,0,0,1,.42.33,5.21,5.21,0,0,0,1.26,1.42,2.89,2.89,0,0,1,.8.89,3.28,3.28,0,0,1,.29,1.47c0,.05-.2.09-.42.09a1.53,1.53,0,0,0-.56.11c-.15.12-.21.1-.62-.16-.25-.16-.63-.44-.85-.62l-.41-.32-.5.26-.49.27-.64-.61c-.58-.55-.66-.61-1.07-.66s-.47-.09-.88-.54l-.46-.49.36-.38a2.43,2.43,0,0,0,.46-.71,1.68,1.68,0,0,1,.42-.64c.38-.36.41-.59.16-1a1.36,1.36,0,0,1,.51-1.78,7.69,7.69,0,0,1,1.33-.61A.6.6,0,0,1,38.85,34.58Zm-28.43.68a1.84,1.84,0,0,1,.66,1,.78.78,0,0,1-.16.41.59.59,0,0,0,.11.91,2.72,2.72,0,0,1,.53.78,2.46,2.46,0,0,0,.54.77l.3.23-.5.5c-.45.45-.53.5-.93.54s-.49.1-1.05.65l-.61.59-.48-.24a5.24,5.24,0,0,0-.52-.23,2.58,2.58,0,0,0-.4.3c-.19.16-.58.42-.85.6-.44.27-.51.3-.63.18a1,1,0,0,0-.56-.12H5.43v-.4a3.23,3.23,0,0,1,.18-.86,3,3,0,0,1,.94-1.19,11.08,11.08,0,0,0,1-1.12,7,7,0,0,1,.68-.82,2.3,2.3,0,0,0,.62-1.12l.23-.71L9,35.26c-.08-.37-.17-.72-.19-.78A5.62,5.62,0,0,1,10.42,35.26ZM46,34.56c-.06.25-.1.32-.16.25s0-.46.14-.46S46.05,34.44,46,34.56Zm-22,2c0,.73.08,1.48.08,1.66,0,.34,0,.35-.29.35s-.29,0-.29-.27c0-.55.17-3,.23-3.27l.05-.28.07.24A13.37,13.37,0,0,1,24,36.52ZM21.5,35a1.84,1.84,0,0,1,.27.53,2,2,0,0,0,.39.69,1.09,1.09,0,0,1,.34.78,2.19,2.19,0,0,0,.64,1.31c.1.12.17.25.15.27a2.23,2.23,0,0,1-.68.15c-.08,0-.15,0-.15.07a.07.07,0,0,1-.08.07s-.08-.05-.08-.11a1.89,1.89,0,0,0-.18-.49,1.37,1.37,0,0,1-.11-.89c0-.45,0-.52-.15-.73a1.24,1.24,0,0,1-.39-1,1.08,1.08,0,0,0-.14-.61C21.18,34.79,21.3,34.77,21.5,35Zm4.78.28a1.77,1.77,0,0,1-.2.52,1,1,0,0,0-.16.79,1.06,1.06,0,0,1-.23.89,1.59,1.59,0,0,0-.28.92c0,.48,0,.54-.22.36a1,1,0,0,0-.38-.11.7.7,0,0,1-.33-.06c-.11-.1.26-.82.6-1.18s.37-.41.35-.81a1,1,0,0,1,.3-.83,2,2,0,0,0,.36-.62c0-.17.07-.2.12-.12A.49.49,0,0,1,26.28,35.26Zm9.13.43a.28.28,0,0,1-.22.17c-.17,0-.18,0-.08-.14S35.45,35.5,35.41,35.69ZM21,37.4c.67.84,1.21,1.54,1.21,1.58s0,0-.05,0-.1,0-.17.08a.31.31,0,0,1-.24.08c-.08,0-.09,0-.06.09.11.3-.14-.07-1-1.42-.95-1.54-1.24-2.11-1-2C19.75,35.86,20.34,36.56,21,37.4Zm6.75-.94c-1.16,2-1.55,2.66-1.64,2.74s-.08.07,0,0,0-.09-.08,0-.13,0-.09,0,0-.08-.06,0c-.47.17,0-.59,1.67-2.7C28.05,35.67,28.18,35.72,27.75,36.46Zm1.38.24a1.9,1.9,0,0,0-.32.57,1.2,1.2,0,0,1-.48.63,1,1,0,0,0-.56.89,1.79,1.79,0,0,1-.26.64,3.93,3.93,0,0,0-.34.53c-.12.22-.17.25-.27.17a.24.24,0,0,1-.08-.23c0-.06,0-.1,0-.07s-.3-.16-.24-.27,0-.07,0,0a.2.2,0,0,1-.21-.05c-.1-.1,0-.16.35-.43a1.67,1.67,0,0,0,.73-.84,1.21,1.21,0,0,1,.64-.7,1.2,1.2,0,0,0,.53-.48,1,1,0,0,1,.65-.5S29.23,36.6,29.13,36.7Zm-10,.56a1.07,1.07,0,0,1,.48.58c.17.38.24.45.6.57a3.57,3.57,0,0,1,1.27,1s0,0-.09,0-.07,0-.06.06,0,.09-.09.08-.09,0-.08,0S21,40,21,39.92s-.08,0-.07,0c.09.47-.15.3-.48-.35a2.07,2.07,0,0,0-.74-.92,1.12,1.12,0,0,1-.54-.66,2.16,2.16,0,0,0-.41-.66,1.46,1.46,0,0,1-.36-.55l-.06-.23.28.27A2.49,2.49,0,0,0,19.12,37.26ZM18.9,38.7c.67.76.67.65,0,1.66s-.57.9-1,1l-.39.12h.34c.3,0,.39-.05,1.11-.67a3.16,3.16,0,0,1,.88-.65c.09,0,2.61,1.63,2.69,1.7a2.52,2.52,0,0,1-.63.83,1.92,1.92,0,0,1-1,.21,54.28,54.28,0,0,0-6.53.88c-1.36.26-1.36.26-1-.12a.79.79,0,0,1,.68-.32c.31,0,.38,0,.63-.34a2.94,2.94,0,0,0,.53-.95,3.65,3.65,0,0,0-.43.32,1,1,0,0,1-.9.32c-.47,0-.52,0-1.1.45a3.43,3.43,0,0,1-1.5.69,2.42,2.42,0,0,0-1.23.55,1.11,1.11,0,0,1-.83.37l-.49.06.58-.61a23.36,23.36,0,0,1,3.56-3,13.48,13.48,0,0,1,2.18-.23,2.34,2.34,0,0,0,1.62-.86c.62-.73,1.6-1.78,1.65-1.79A2.61,2.61,0,0,1,18.9,38.7Zm11.46.72c1.12,1.24,1.53,1.52,2.17,1.52.19,0,.77,0,1.3.09l1,.09.93.73a17.28,17.28,0,0,1,3,2.92A20.87,20.87,0,0,1,36,44.31a7.78,7.78,0,0,1-1.21-1.14A8.78,8.78,0,0,0,33.56,42c-.09,0-.52-.18-1-.3a5.52,5.52,0,0,1-2.47-1.5,8.77,8.77,0,0,0-.92-.75.72.72,0,0,0-.26.19l-.18.19.84.67a6.17,6.17,0,0,0,1.6,1A16.29,16.29,0,0,1,33.65,43a10.12,10.12,0,0,1,1.58,1.16,5.37,5.37,0,0,1-.7-.18c-.34-.11-.59-.16-.55-.11s0,.07-.14,0c-.54-.13-3.16-.56-4.27-.7a44.24,44.24,0,0,0-5.05-.37l-1.8-.06.35-.26c.32-.25.37-.25.57-.15s.27.1.58-.05a18.47,18.47,0,0,0,2.54-1.6,15.55,15.55,0,0,0,2.31-2.2c.07-.12.16-.21.2-.21A14.24,14.24,0,0,1,30.36,39.42ZM17.63,38.9a16.14,16.14,0,0,1-1.4,1.54s-.08,0-.11-.11a.28.28,0,0,1,.25-.36c.06,0,.16-.12.23-.26a2.64,2.64,0,0,1,.35-.52c.15-.19.18-.26.1-.26s-.34-.36-.26-.44A3.37,3.37,0,0,1,17.63,38.9Zm-1-.28a.34.34,0,0,1,.1.2c0,.08-.05.08-.22,0s-.3-.12-.24-.22A.23.23,0,0,1,16.63,38.62ZM31,38.85c0,.34,0,.39.21.19s.15-.11.26,0,.1.15-.06.35-.21.72.08.46a.26.26,0,0,1,.33,0c.16.09.16.11.05.24a.45.45,0,0,0-.14.23c0,.26-.21.1-.82-.56a7.37,7.37,0,0,1-.67-.81,1.83,1.83,0,0,1,.71-.38S31,38.66,31,38.85Zm.57-.21c0,.06-.11.15-.25.2s-.29.07-.17-.16S31.52,38.47,31.52,38.64Zm-6.55.2a4.46,4.46,0,0,1,.79.35,4,4,0,0,1,1.11,1.14,11.4,11.4,0,0,1-3,1.89,14.54,14.54,0,0,1-2.37-1.37l-.58-.41c-.2-.14.71-1.07,1.37-1.39A3.7,3.7,0,0,1,25,38.84ZM41.88,39a.3.3,0,0,1-.09.25c-.13.12-.14.12-.14-.13S41.79,38.76,41.88,39Zm-25.53.53c.07.09.12.18.1.2s-.47-.17-.47-.28S16.21,39.31,16.35,39.51Zm15.46-.1s-.07.13-.21.2-.25.11-.25,0S31.69,39.23,31.81,39.41Zm-18.92.48.19.23-1.6,1.12L9.89,42.38,9.2,42a2.13,2.13,0,0,0-.69-.29,5,5,0,0,0,.2.63l.19.56-.38.93c-.21.5-.42,1-.45,1a8.92,8.92,0,0,1-2.42,0,.66.66,0,0,1,0-.3c0-.23.08-.25.24-.19a.27.27,0,0,1,.19.23c0,.1,0,.14.11.12a.57.57,0,0,0,.24-.59c0-.14,0-.17.18-.17s.22,0,.22.2.12.26.29,0a.76.76,0,0,0,.08-.59c-.09-.66-.13-.74-.38-.9l-.26-.15.36-.22c.2-.13.59-.4.89-.62l.52-.39.5.26.5.26.64-.62c.6-.57.67-.62,1.08-.67s.47-.08.9-.56S12.52,39.45,12.89,39.89Zm23.86.68c.43,0,.49.09,1.1.66l.63.62.46-.26c.51-.28.48-.29,1.11.2a8,8,0,0,0,.82.56c.37.21.38.23.2.29s-.46,0-1-.51a3.9,3.9,0,0,0-.53-.45s-.13.45-.29.94l-.28.9.29.56.28.55.65,0a4.82,4.82,0,0,1,1.44.1c.1,0,.15,0,.18-.11s.28-.22.35,0,0,.34-1.5.3l-1.39,0-.45-.48c-.39-.42-.42-.49-.27-.52s.15-.06-.07-.37-.58-.71-1-1.19c-.78-.83-.8-.85-1.28-1A2.18,2.18,0,0,1,35,40.84l-.61-.47.44-.45.44-.45.5.53C36.26,40.48,36.32,40.52,36.75,40.57Zm-20.92-.46a.38.38,0,0,1,.15.24c0,.09,0,.09-.25,0s-.29-.2-.19-.3S15.67,40,15.83,40.11Zm16.42,0c0,.05-.09.14-.23.21-.29.15-.34,0-.11-.21S32.19,40,32.25,40.12Zm.17.38a1,1,0,0,0,.49.1c.12,0,.23,0,.24.07s-.86.14-1.13,0-.19-.11,0-.19l.17-.1Zm-16.56,0c.07.13-.26.25-.7.25a9.46,9.46,0,0,0-2.31.29,10.1,10.1,0,0,0-.87.65l-.69.53.54-.56c1.06-1.07.87-1,1.88-1,.5,0,1-.06,1.15,0a1,1,0,0,0,.46-.06C15.58,40.44,15.79,40.44,15.86,40.53Zm12,2.62a56.43,56.43,0,0,1,5.95.9c4.78,1,5.94,1.11,7.63,1.05a3.54,3.54,0,0,0,1.49-.23c.53-.21.77-.49.77-.84s.2-.52.32-.29.1.65-.53,2.08a4.21,4.21,0,0,0-.27,1l-.06.5-.5.24c-.49.24-.52.24-1.75.23A26.31,26.31,0,0,1,35,46.89a38.46,38.46,0,0,0-8-1.21,59.58,59.58,0,0,0-9,.21c-1.11.13-3.05.5-6,1.14a22.44,22.44,0,0,1-5.23.77c-1.18,0-1.27,0-1.71-.2l-.47-.22-.1-.61a5.92,5.92,0,0,0-.41-1.31c-.41-.87-.53-1.32-.41-1.64s.11-.21.22-.13a.26.26,0,0,1,.11.3c0,.32.38.76.92.94a5.92,5.92,0,0,0,2,.14,24.79,24.79,0,0,0,6-.83A60.43,60.43,0,0,1,21.47,43,52.16,52.16,0,0,1,27.81,43.15Zm-20.67.59c.05.15,0,.41-.12.41s-.25-.46-.19-.51A.19.19,0,0,1,7.14,43.74Zm33.8-.08a.58.58,0,0,1-.07.34l-.11.27-.06-.22C40.61,43.72,40.79,43.43,40.94,43.66Zm-36.09.78c.26.06.48.24.39.33s-.72-.22-.85-.41A.64.64,0,0,1,4.27,44c0-.13,0-.1.17.11A.61.61,0,0,0,4.85,44.44Zm38.49,0a1.45,1.45,0,0,1-.69.38c-.18,0-.07-.24.15-.29s.59-.32.61-.5,0,0,.05,0A.45.45,0,0,1,43.34,44.41Zm-37-.19a.68.68,0,0,1,0,.32c0,.1-.09.08-.18-.14a.59.59,0,0,1-.07-.35C6.15,43.93,6.31,44,6.33,44.22ZM41.7,44.1c.06.15-.11.47-.22.41a.47.47,0,0,1,0-.46A.13.13,0,0,1,41.7,44.1Zm-36.16.53c-.06.23-.14.2-.25-.08s-.06-.24,0-.26S5.59,44.46,5.54,44.63Zm37-.33a.57.57,0,0,1-.07.34l-.12.27,0-.21C42.18,44.36,42.37,44.07,42.52,44.3ZM26.82,46c.79,0,1.92.09,2.54.1a6.91,6.91,0,0,1,2.35.28c-.08.07-3.17.46-4.55.56a64.45,64.45,0,0,1-6.52,0c-1.43-.11-4.52-.49-4.6-.56a9.62,9.62,0,0,1,2.19-.33A62.13,62.13,0,0,1,26.82,46Z"/><path d="M21.84,1.8s0,.08,0,.08A.23.23,0,0,0,22,1.8s0-.08,0-.08A.2.2,0,0,0,21.84,1.8Z"/><path d="M37.3,16.82a.77.77,0,0,0,.16.25c.06,0-.08-.32-.18-.41S37.2,16.64,37.3,16.82Z"/><path d="M38.6,16.8a.17.17,0,0,0,.29.17c.08-.06.1,0,.1.09s.16.31.26.16.09-.45-.18-.5S38.66,16.65,38.6,16.8Z"/><path d="M37.89,16.94c-.15.12-.14.12,0,.17s.42.26.42.35-.17.05-.39,0-.36,0-.31,0a.27.27,0,0,1,0,.27c0,.23.08.36.43.54a.29.29,0,0,1,.17.26.24.24,0,0,0,.14.22.75.75,0,0,1,.28.24.41.41,0,0,0,.38.2c.14,0,.25,0,.25-.07s-.08-.06-.18,0-.65-.34-.65-.66,0-.26.41-.24a.84.84,0,0,1,.61.18.7.7,0,0,0,.29.18c.16,0,.12.15-.12.38s-.2.2-.18.21l.27.09c.27.09.65.61.49.66a.1.1,0,0,0-.05.15c0,.07,0,.12-.06.12s-.08,0,0,.07-.28.38-.51.44a1.46,1.46,0,0,1-.94-.31c-.17-.15-.89-.23-.89-.1s0,.39-.11.34a.32.32,0,0,1-.06-.28.67.67,0,0,0-.17-.45.61.61,0,0,1-.15-.56c0-.18.06-.31.11-.3s.08,0,.08-.12,0-.13.1-.12.1,0,.1-.05.1-.1.23-.12.08,0-.08,0c-.39,0-.4,0-.31-.31s.05-.28-.1-.4a1,1,0,0,0-.24-.14c-.11,0-.27.47-.2.58s.08,0,.13-.09.09-.17.18-.09.07.11,0,.16a.18.18,0,0,0,.11.33c.08,0,.11,0,.09.09a.15.15,0,0,1-.17,0c-.07,0-.09,0-.06.13s0,.16-.24-.06l-.28-.24.23.25a.74.74,0,0,1,.23.48,4.25,4.25,0,0,0,.12.7c.17.62.16.68-.1,1l-.22.32.29.21c.15.12.34.27.41.34s.29.12.71.12H39l0-.36c0-.41.1-.51.51-.76a2.34,2.34,0,0,0,.84-.82.37.37,0,0,1,.26-.21l.19,0-.19,0c-.12,0-.18-.05-.17-.1s-.11-.23-.3-.38-.33-.29-.31-.32A1.27,1.27,0,0,1,40.3,19c.41,0,.49,0,.56-.18s.13-.16.16-.13,0,0,0-.07a.74.74,0,0,0-.32-.25c-.22-.1-.24-.13-.11-.18a.85.85,0,0,1,.39,0c.26.05.32-.05.16-.27s-.09-.11,0,0,0,.12-.23.12a1,1,0,0,0-.55.22c-.39.27-.53.27-.75,0s-.22-.22-.5-.19-.57-.07-.57-.39a.69.69,0,0,0-.26-.48c-.19-.2-.23-.27-.14-.32s.07-.07,0-.07A1.13,1.13,0,0,0,37.89,16.94Zm.44.93a.27.27,0,0,1-.07.2s-.06,0,0-.11a.17.17,0,0,0,0-.2c-.05,0-.09,0-.09,0a.09.09,0,0,1-.09.08s-.06,0,0-.1,0,0-.08.06-.13.12-.13.07a.4.4,0,0,1,.13-.22A.27.27,0,0,1,38.33,17.87Zm2.28.62a.26.26,0,0,1,.12.26V19l-.09-.2c0-.12-.1-.16-.12-.11s-.08.11-.12.11-.06-.05,0-.11,0-.06-.07,0-.19,0,0-.14S40.42,18.42,40.61,18.49Zm-1.88,2,.22.17-.29-.05a2.26,2.26,0,0,1-.5-.17l-.2-.11h.27A1,1,0,0,1,38.73,20.53Zm.44.42c-.2.2-.27.16-.21-.08s.09-.15.22-.12S39.34,20.79,39.17,21Zm-1.73.32c0,.12-.09.22-.14.22s-.22-.11,0-.3S37.5,21,37.44,21.27Zm1.47.49c0,.2-.13.35-.22.26s.05-.45.14-.45S38.91,21.66,38.91,21.76Z"/><path d="M40,17.14s.08.12.24.18.28.15.25.24a.15.15,0,0,0,.08.19c.16.05.39,0,.35-.14S40,17.06,40,17.14Z"/><path d="M37.29,17.33c-.11.24-.63.5-.72.36s-.07-.06-.07,0,0,.18.36,0,.59-.4.54-.53S37.33,17.23,37.29,17.33Z"/><path d="M39.83,17.39s.07.12.17.16.17.08.07-.07S39.83,17.25,39.83,17.39Z"/><path d="M41.49,18.49a.58.58,0,0,0-.14.54c0,.36.33.69.43.52s0-.08,0,0-.35-.34-.35-.61a.61.61,0,0,1,.44-.57c.19,0,.19,0,0,0A.58.58,0,0,0,41.49,18.49Z"/><path d="M38.33,19.28a.12.12,0,0,0,.12.12.18.18,0,0,1,.15.1c0,.05.06.08.1.05s-.1-.39-.25-.39A.13.13,0,0,0,38.33,19.28Z"/><path d="M40.78,19.4a.14.14,0,0,1-.17,0c-.19-.07-.14.11.06.24s.4,0,.4-.2A.15.15,0,0,0,40.78,19.4Z"/><path d="M39,19.46c-.17.05-.12.16.07.21a.27.27,0,0,0,.25,0C39.45,19.44,39.28,19.35,39,19.46Z"/><path d="M40.68,20.18a.53.53,0,0,0,.25,0s0,0-.15,0S40.6,20.16,40.68,20.18Z"/><path d="M11.05,17a.6.6,0,0,0-.13.34c0,.37.59,1,.69.73,0-.07,0-.09-.11-.07s-.21,0-.33-.22-.21-.54,0-.78.11-.18.08-.18A.6.6,0,0,0,11.05,17Z"/><path d="M10,18.13a1.75,1.75,0,0,0-.27.34c-.14.21-.18.22-.51.18s-.37,0-.41.11a.45.45,0,0,1-.6.25.68.68,0,0,0-.83.12c-.13.11-.19.18-.14.16s.11,0,.14.11.37.32.74.19.45,0,0,.43c-.2.19-.33.35-.28.35s.09.15-.13.18-.22,0,0,.05a.53.53,0,0,1,.37.26,2.27,2.27,0,0,0,.54.53c.62.43.66.49.66.8s.07.5.61.49a1.39,1.39,0,0,1,.52,0s.16-.08.3-.22a1.3,1.3,0,0,1,.41-.33c.22-.07.2-.24-.07-.57l-.22-.29.14-.5a3.7,3.7,0,0,0,.14-.71,1,1,0,0,1,.18-.43c.18-.22.18-.22,0-.08s-.29,0,0-.35l.26-.28-.26.22c-.25.22-.26.22-.52.09a1.18,1.18,0,0,0-.56-.09c-.22,0-.28,0-.28-.11s.09-.16.24-.19a.55.55,0,0,0,.49-.6c0-.22-.05-.24-.27-.24A.8.8,0,0,0,10,18.13Zm.47.31c0,.15-.05.21-.2.22s-.37-.08-.3-.3A.26.26,0,0,1,10.46,18.44Zm-.69.44c.12.16.06.36-.2.59s-.33.24-.52.21l-.35,0c-.06,0-.16-.11-.23-.24s-.12-.23.08-.28a.58.58,0,0,0,.3-.19A1,1,0,0,1,9.77,18.88ZM8,19.13c.14.17,0,.39-.27.39s-.31-.22-.16-.4A.26.26,0,0,1,8,19.13Zm2.76.3a.87.87,0,0,1,0,1.14.67.67,0,0,1-.33.2.12.12,0,0,0-.13.12c0,.13-.59.43-.84.44s0-.33.51-.41l.29-.05H10c-.17,0-.34,0-.37.08a1.51,1.51,0,0,1-.42.25c-.36.15-.38.15-.67,0S8.24,21,8.25,21s0-.12-.12-.16-.12-.08,0-.14.09-.07,0-.07-.11-.39.15-.6.54-.27.53,0,0,.23.37.23c.66,0,1.21-.56.67-.69l-.21,0,.25-.13A.72.72,0,0,1,10.78,19.43Zm0,1.43a.68.68,0,0,1-.07.25c0,.14-.06.13-.14,0s-.08-.22,0-.25S10.75,20.77,10.74,20.86Zm-1.42.72s-.12,0-.22-.06-.19-.14,0-.19A.2.2,0,0,1,9.32,21.58Zm1.8.26c.09.15,0,.25-.16.19s-.18-.41,0-.36A.42.42,0,0,1,11.12,21.84Zm-1.53.73c-.13.12-.24-.07-.19-.33l0-.21.11.22C9.65,22.42,9.66,22.5,9.59,22.57Z"/><path d="M10.18,18.48c-.09.1-.07.12.07.12s.17-.06.17-.12S10.33,18.32,10.18,18.48Z"/><path d="M7.76,19.36c-.08.1-.08.12,0,.12a.13.13,0,0,0,.14-.12c0-.06,0-.12,0-.12Z"/><path d="M6,18.75a.62.62,0,0,1,.57.68.58.58,0,0,1-.1.4c-.07,0,0,.05,0,.05s.14-.07.14-.4c0-.49-.26-.81-.64-.79H5.81Z"/><path d="M7.45,20.82a.53.53,0,0,0,.25,0s0,0-.15,0S7.37,20.8,7.45,20.82Z"/><path d="M35.34,20.81c-.08.19,0,.44.07.44a.74.74,0,0,0,.25-.13c.2-.14.24-.51.05-.51s-.12.08-.12.21,0,.18-.08.16,0-.12,0-.21S35.43,20.57,35.34,20.81Z"/><path d="M34.34,22.21c0,.05-.05.08-.11.08s-.22.17-.22.33.05.08.12.08a.21.21,0,0,1,.17.17c.08.22.5.18.5-.05s0-.16-.15-.16-.14,0-.1-.2,0-.24-.07-.27S34.34,22.17,34.34,22.21Z"/><path d="M35.34,22.58c0,.28,0,.32.28.23a.25.25,0,0,0,0-.42C35.46,22.21,35.34,22.29,35.34,22.58Z"/><path d="M36.69,23a.65.65,0,0,0,.24.61.36.36,0,0,0,.29,0c.15-.06.15-.07,0-.17a1.11,1.11,0,0,0-.25-.14s-.07-.06,0-.09.14,0,.23,0,.22,0,0-.24S36.77,22.81,36.69,23Z"/><path d="M36,23.12c0,.07-.06.14,0,.16s0,.06-.11.06a.34.34,0,0,0-.36.3c0,.15.36.29.6.23s.47-.55.31-.73A.25.25,0,0,0,36,23.12Z"/><path d="M38.84,23.17c-.1.18-.13.39,0,.31s.1,0,.17,0,.3,0,.26-.27S39,23,38.84,23.17Z"/><path d="M34.84,23.23a2.89,2.89,0,0,0-.75.69s.14-.07.32-.24a5.16,5.16,0,0,1,.51-.44c.12-.07.2-.13.17-.13A.55.55,0,0,0,34.84,23.23Z"/><path d="M37.94,23.23a1.38,1.38,0,0,0-.69.81c0,.2.22.48.3.4a.5.5,0,0,0,0-.34c0-.23,0-.29.23-.39.48-.24.68-.11.34.23-.14.15-.15.19,0,.27s.16.06.32-.07a.69.69,0,0,1,.24-.13s0,0,0,0,0-.08.06-.14,0-.43-.2-.43a.37.37,0,0,1-.22-.12.27.27,0,0,0-.16-.11Z"/><path d="M39.53,23.35c-.24.08-.33.58-.14.88s.49.45.67.35.14-1.17-.21-1.26A.6.6,0,0,0,39.53,23.35Zm.3.6c0,.1,0,.19-.09.19s-.08-.11-.08-.25,0-.22.08-.19S39.83,23.84,39.83,24Z"/><path d="M34.87,23.61a.6.6,0,0,0,.15.81c.31.18.52-.41.29-.83S35,23.3,34.87,23.61Z"/><path d="M36.34,24.12a.67.67,0,0,0,.19.3c.15.17.23.2.41.16a.28.28,0,0,0,.11-.51C36.91,24,36.34,24,36.34,24.12Z"/><path d="M35.6,24.42a.58.58,0,0,0-.21.72c0,.07.08.13.13.13s.06,0,0-.07,0-.1.12-.13.22-.16.08-.24a.18.18,0,0,1-.08-.13c0-.11.37-.09.48,0s.23,0,.14-.24S35.92,24.17,35.6,24.42Z"/><path d="M38.08,24.63c0,.05-.09.07-.23,0s-.48.12-.39.37.53.21.85-.11c.15-.14.24-.29.22-.32S38.08,24.54,38.08,24.63Z"/><path d="M33.84,25a.23.23,0,0,0,.08.16s.06,0,0-.11S33.84,24.82,33.84,25Z"/><path d="M36.27,25.08c-.41.14-.5.28-.37.54s1.52.27,1.52-.13c0-.09,0-.13.1-.09s.06,0,0,0-.37,0-.68.13a.53.53,0,0,1-.33,0c-.15-.06-.15-.07.07-.15a1.32,1.32,0,0,1,.34-.09c.15,0,.21-.08.16-.21S36.73,24.92,36.27,25.08Z"/><path d="M38.12,25.76a4.4,4.4,0,0,1-.47.4c-.17.09-.21.51-.07.59s.07.08,0,.12,0,.13.13.21.17.13.46,0,.32-.3.46-.73.15-.57.08-.7S38.5,25.39,38.12,25.76Zm.16.62c-.18.3-.45.34-.45.07s.07-.2.28-.27a1.14,1.14,0,0,1,.29-.06A.68.68,0,0,1,38.28,26.38Z"/><path d="M39.05,25.86c-.06.14,0,.45.11.45s.33-.11.33-.23S39.14,25.64,39.05,25.86Z"/><path d="M36.6,26.09a.49.49,0,0,0-.1.32c0,.26.24.3.44.08s.19-.5,0-.5a.14.14,0,0,0-.13.15.28.28,0,0,1-.09.22c-.07,0-.08,0,0-.16S36.74,26,36.6,26.09Z"/><path d="M35.12,26.23c-.15.09-.28.22-.28.28s.23.23.47,0,.36-.22.36-.06-.51.48-.92.49h-.4l.18-.18c.24-.26.13-.31-.25-.13-.22.11-.32.22-.34.36s0,.21.42.25a4.39,4.39,0,0,1,.63.1c.16.05.27,0,.68-.42a2.59,2.59,0,0,0,.5-.57c0-.09-.51-.34-.7-.34A1.06,1.06,0,0,0,35.12,26.23Z"/><path d="M38.79,26.56a.5.5,0,0,0,0,.29c.09.08.22-.07.22-.26S38.85,26.28,38.79,26.56Z"/><path d="M36.93,26.65a.72.72,0,0,0-.07.4c0,.23,0,.31.2.38s.22.06.36-.07.16-.16,0-.26-.14-.15-.11-.32,0-.23-.13-.23A.4.4,0,0,0,36.93,26.65Z"/><path d="M33.45,26.81c-.12.11-.14.42,0,.35a.09.09,0,0,1,.13,0c.14.21.34-.07.25-.33S33.6,26.67,33.45,26.81Z"/><path d="M38.28,27a.76.76,0,0,1-.32.2c-.19.08-.21.11-.08.12a.68.68,0,0,0,.37-.2c.11-.12.17-.2.14-.2A.19.19,0,0,0,38.28,27Z"/><path d="M38.31,27.36c-.34.21-.39.27-.44.58-.07.47,0,.73.13.76s.31-.08.36-.39,0-.31-.1-.33-.1-.05.09-.17c.35-.23.56.05.27.35a.22.22,0,0,0,.17.4c.31,0,.4-.21.38-.85,0-.22-.27-.59-.41-.59A3,3,0,0,0,38.31,27.36Z"/><path d="M32.94,27.57c0,.12-.08.23-.06.25s.3-.16.3-.31S33.06,27.32,32.94,27.57Z"/><path d="M33.7,27.49a.76.76,0,0,0-.35.24c-.57.7,0,1.16.69.54a1,1,0,0,0,.3-.43c0-.15-.25-.41-.38-.39Zm.1.56c-.23.17-.34,0-.11-.15s.2-.13.23,0S33.89,28,33.8,28.05Z"/><path d="M37.25,27.67a2,2,0,0,0,0,1.13.21.21,0,0,0,.25.11.34.34,0,0,0,0-.56c-.1,0-.12-.13-.07-.44S37.42,27.38,37.25,27.67Z"/><path d="M32.43,27.8c0,.11,0,.2-.07.2s-.06-.07,0-.16,0-.16,0-.16-.2.35-.14.52.24.1.45-.06.13-.54,0-.54S32.43,27.67,32.43,27.8Z"/><path d="M36.14,27.84c-.24.28-.25.3-.14.48s.11.07.3-.1a1,1,0,0,1,.29-.22c.1,0,.15.51,0,.68s-.09.14-.15-.1-.24-.29-.24-.07a1.83,1.83,0,0,0,.44.8c.19.06.4-.71.32-1.13s-.13-.47-.43-.54S36.32,27.64,36.14,27.84Z"/><path d="M39.39,28a.66.66,0,0,0,0,.58.44.44,0,0,0,.29.12c.13,0,.2,0,.19,0s0-.09.08-.15.11-.3-.13-.33a.54.54,0,0,1-.3-.16C39.48,28,39.42,27.94,39.39,28Z"/><path d="M31.74,28.43c-.06.14,0,.45.11.45s.33-.11.33-.23S31.83,28.21,31.74,28.43Z"/><path d="M35.56,28.47a.43.43,0,0,0,0,.31l.1.22,0-.23C35.77,28.53,35.65,28.32,35.56,28.47Z"/><path d="M32.62,28.62a.13.13,0,0,0,0,.17c.15.05.12.15-.06.2s-.2.28.09.34a.52.52,0,0,0,.31,0c.1-.1.1-.72,0-.78S32.68,28.47,32.62,28.62Z"/><path d="M38.42,28.84a.38.38,0,0,0,.18.61c.14,0,.25,0,.28,0s0-.06-.06,0,0,0,0-.07.14-.15,0-.37S38.58,28.65,38.42,28.84Z"/><path d="M32.07,29a.59.59,0,0,0,0,.29c0,.28.19.27.23,0S32.17,28.92,32.07,29Z"/><path d="M37.47,29a.48.48,0,0,0,0,.27c0,.31.24.3.48,0a1.12,1.12,0,0,0,.18-.28A1.16,1.16,0,0,0,37.47,29Z"/><path d="M39.14,29.18c-.06.28,0,.37.2.32s.2.05,0,.18-.22.42,0,.55a.39.39,0,0,1,.24.4c0,.22,0,.26.2.26s.3-.12.24-.42a.42.42,0,0,1,.06-.34c.09-.11.07-.16-.07-.31a1.26,1.26,0,0,1-.25-.49c-.06-.3-.09-.33-.36-.35S39.18,29,39.14,29.18Z"/><path d="M40.12,29.05a.34.34,0,0,0,.23.48c.15,0,.16,0,.06.08s-.1.09,0,.06.27-.41.09-.58S40.19,28.92,40.12,29.05Z"/><path d="M37.88,29.62a.86.86,0,0,0,0,.85.31.31,0,0,0,.45,0s0-.06,0,0-.08,0,0-.06.1-.11.15-.07,0,0,0-.08a.36.36,0,0,0-.23-.14c-.06,0-.11,0-.11-.08s.34-.23.48-.19.12-.09,0-.24S38,29.41,37.88,29.62Z"/><path d="M36.75,29.66a.74.74,0,0,0,.13.31l.13.16.12-.16c.12-.15.11-.18-.05-.31a.74.74,0,0,0-.25-.13S36.75,29.59,36.75,29.66Z"/><path d="M32,29.84a.69.69,0,0,0,0,.41c.07.14,0,.18-.11.23s-.38.33-.24.33l.23.05c.25.06.38-.27.32-.82S32.06,29.48,32,29.84Z"/><path d="M32.35,29.71a.22.22,0,0,0,.06.17.87.87,0,0,1,0,.39c0,.33,0,.33.11.18s.24-.51.08-.68S32.35,29.56,32.35,29.71Z"/><path d="M38.79,29.77c-.12.13-.13.18,0,.27s.42,0,.42-.25S39,29.55,38.79,29.77Z"/><path d="M36.5,30.11a.54.54,0,0,0,.4.46c.17,0,.12-.22-.1-.43S36.5,29.88,36.5,30.11Z"/><path d="M37.32,30.22a.5.5,0,0,0-.07.3c0,.17,0,.22.09.16a.41.41,0,0,0,.06-.31C37.38,30.25,37.35,30.19,37.32,30.22Z"/><path d="M38.58,30.51a.35.35,0,0,0,.39.29.2.2,0,0,0,.15-.19c0-.12-.07-.17-.27-.18S38.58,30.43,38.58,30.51Z"/><path d="M40.32,30.61a.16.16,0,0,0,0,.25c.1.1.13.1.24,0s.08-.37-.05-.37A.42.42,0,0,0,40.32,30.61Z"/><path d="M39.14,31c-.19.1-.23.17-.23.44s0,.34.14.37.55-.14.64-.4.05-.24-.1-.38S39.43,30.87,39.14,31Z"/><path d="M40,31.13c-.12.12-.13.28-.12.82s0,.67.18.67.34-.39.17-.53a.55.55,0,0,1,0-.72.23.23,0,0,0,.11-.25C40.29,30.93,40.14,30.93,40,31.13Z"/><path d="M41.83,31.93c-.14.25-.11.41.07.41s.17-.06.17-.23S41.94,31.72,41.83,31.93Z"/><path d="M38.75,32.06c-.1.24,0,.36.13.36s.11-.08.11-.23C39,31.86,38.85,31.79,38.75,32.06Z"/><path d="M39.3,32.07c-.11.1-.06.31.1.41s.26.06.26-.24,0-.22-.15-.22A.38.38,0,0,0,39.3,32.07Z"/><path d="M38.06,32.46c-.06.15-.06.22,0,.32s.26.15.46,0,.15-.15.06-.32A.28.28,0,0,0,38.06,32.46Z"/><path d="M40.51,32.44c-.13.12-.14.3,0,.3s.41-.17.41-.28S40.65,32.3,40.51,32.44Z"/><path d="M41.39,32.54c-.34.44,0,1.34.32,1,.08-.08.06-.17-.07-.41s-.14-.31,0-.31.47.59.41.89-.16.36-.23.2-.22-.14-.22.1.22.58.42.58.18-.09.24-.35a2.9,2.9,0,0,1,.17-.47.63.63,0,0,0,.08-.29,3.1,3.1,0,0,0-.85-1.14A.45.45,0,0,0,41.39,32.54Z"/><path d="M38.91,32.74c0,.09,0,.16.08.16s.08.15-.12.19-.21.09-.21.13.41.25.56.17a.65.65,0,0,0,.09-.71C39.17,32.52,38.91,32.56,38.91,32.74Z"/><path d="M40.27,33.07c-.23.08-.26.38-.06.45a.27.27,0,0,0,.31-.36C40.47,33,40.41,33,40.27,33.07Z"/><path d="M39.55,33.34a.66.66,0,0,0,0,.28c0,.12,0,.17-.09.17s-.17.16,0,.29.56-.25.36-.62S39.61,33.17,39.55,33.34Z"/><path d="M40.79,33.38c-.11.11-.13.26-.12.61,0,.53.17.64.35.29s.18-.53,0-.46-.15,0,0-.24S41,33.16,40.79,33.38Z"/><path d="M39.91,34.34c-.18.34,0,.57.44.57.28,0,.32-.17.13-.47S40,34.11,39.91,34.34Z"/><path d="M40.94,34.79c-.23.49-.27,1.31,0,1.26a1.13,1.13,0,0,1,.38.07.64.64,0,0,0,.49,0c.26-.11.27-.24.07-.42s-.34-.18-.4,0-.35.15-.46-.05-.07-.2.12-.36a.79.79,0,0,0,.24-.31c0-.23.18-.15.23.13a.61.61,0,0,0,.24.38l.2.13,0-.27a3.61,3.61,0,0,0-.22-.62c-.13-.29-.2-.35-.38-.35S41.11,34.42,40.94,34.79Z"/><path d="M42.16,34.82c-.14.25-.11.41.07.41s.17,0,.17-.23S42.28,34.61,42.16,34.82Z"/><path d="M39.3,34.8s0,.16.09.28.16.21.24.14.14-.29-.05-.39S39.37,34.73,39.3,34.8Z"/><path d="M39.87,35.34c-.29.42-.22,1.74.09,1.63.09,0,.09,0,0,.15s-.1.36.08.36.39-.43.39-.62a.67.67,0,0,0-.23-.33c-.15-.12-.19-.21-.12-.24A.13.13,0,0,0,40,36c-.13,0-.16-.22-.05-.39a.31.31,0,0,1,.27-.08c.17,0,.21,0,.22-.2s0-.22-.22-.22A.41.41,0,0,0,39.87,35.34Z"/><path d="M39.19,35.73a1.57,1.57,0,0,0-.09.52c0,.38,0,.43.14.43s.24-.16.28-.68c0-.25,0-.33-.13-.35A.2.2,0,0,0,39.19,35.73Z"/><path d="M40.45,36.14a.74.74,0,0,0,0,.31c0,.18,0,.18.14,0s.07-.27,0-.32S40.48,36.05,40.45,36.14Z"/><path d="M40.9,36.46c-.12.25,0,.48.13.41s.12,0,.12,0,.25.11.3,0-.05-.23-.2-.38L41,36.25Z"/><path d="M39.16,37.18a.45.45,0,0,0,.15.25c.13.12.17.12.31,0s.15-.12,0-.24S39.16,37,39.16,37.18Z"/><path d="M41.4,37.15c.1.07.06.09-.18.09a.53.53,0,0,0-.55.62c0,.2.06.22.38.25s.41,0,.45-.62c0-.26,0-.37-.1-.39S41.3,37.08,41.4,37.15Zm-.16.44a.19.19,0,0,1-.09.17s-.08,0-.08,0a.64.64,0,0,0,0-.16c0-.09,0-.13.08-.13A.13.13,0,0,1,41.24,37.59Z"/><path d="M40.25,37.74c-.09.23.06.3.22.1s.14-.28,0-.28S40.29,37.64,40.25,37.74Z"/><path d="M41.31,38.25c-.07.09-.07.15,0,.21a.21.21,0,0,0,.35-.13C41.65,38.17,41.43,38.12,41.31,38.25Z"/><path d="M42.37,38.2c-.09.13,0,.49.16.49a.23.23,0,0,0,.18-.13C42.8,38.33,42.48,38,42.37,38.2Z"/><path d="M40.49,38.41a.43.43,0,0,0,.33.36c.22,0,.28-.14.14-.28S40.49,38.32,40.49,38.41Z"/><path d="M43.31,39.58c0,.27,0,.31.12.24s.13-.06.17,0,.06.12.19,0,.09-.44,0-.36-.09,0-.12-.11a.2.2,0,0,0-.17-.16C43.35,39.25,43.31,39.33,43.31,39.58Z"/><path d="M42,39.71c-.11.18-.06.42.09.42a.3.3,0,0,0,.2-.45C42.18,39.54,42.13,39.54,42,39.71Z"/><path d="M42.48,40a.81.81,0,0,0,0,1l.17.19.25-.27a.8.8,0,0,0,.25-.48v-.22l-.18.22c-.23.27-.31.28-.31.06s0-.16.07-.16a.44.44,0,0,0,.22-.11c.13-.09.14-.13.05-.24S42.68,39.78,42.48,40Z"/><path d="M43.75,41.15a.17.17,0,0,0,.27.19.35.35,0,0,0,.13-.21C44.15,41,43.82,41,43.75,41.15Z"/><path d="M30.21,22.11c-.14.05-.13.17,0,.32s.16.11.25,0,.16-.41,0-.4A.85.85,0,0,0,30.21,22.11Z"/><path d="M32.41,22.91c-.09.08-.07.43,0,.43s.41-.17.41-.27S32.52,22.79,32.41,22.91Z"/><path d="M43.71,24.61c-.18.18-.19.3,0,.37s.37.05.35-.21S43.9,24.41,43.71,24.61Z"/><path d="M45.45,29.22c-.17.06-.22.12-.2.23a.14.14,0,0,1,0,.18c-.14,0,0,.27.31.5s1.09.47,1.16.37-.45-.89-.57-.89-.16.07,0,.25.13.15,0,.15a.58.58,0,0,1-.36-.19l-.19-.17.31-.08c.32-.08.38-.18.21-.35S45.77,29.11,45.45,29.22Z"/><path d="M47,31a.36.36,0,0,0,0,.56c.1.08.18.08.33,0s.25-.16.11-.46S47.26,30.85,47,31Z"/><path d="M46.89,31.88c0,.07,0,.27,0,.48s-.05.35.28.49a1,1,0,0,0,.46.11c.13-.05.23-.52.16-.77s-.27-.21-.27.08,0,.23-.1.21-.11-.17-.11-.35,0-.32-.18-.34S46.89,31.81,46.89,31.88Z"/><path d="M46.69,33.32c-.24.32-.13.79.17.79.06,0,.14-.08.19-.17s.07-.17-.06-.2-.14-.1-.12-.32S46.86,33.07,46.69,33.32Z"/><path d="M36.69,31.63c-.17.16-.13.47.06.47s.17-.06.17-.24S36.82,31.5,36.69,31.63Z"/><path d="M35.86,32.23a.18.18,0,0,0-.11.16c0,.06-.09.16-.2.21s-.27.38-.07.44.77-.52.77-.66-.2-.23-.27-.19Z"/><path d="M36.67,32.4a2.87,2.87,0,0,0-.92.92c-.14.28-.14.3,0,.31s.08,0-.06.08-.46,0-.39-.13-.17-.38-.29-.31a.31.31,0,0,0-.07.26.67.67,0,0,1,0,.33c-.06.09,0,.1.23.06l.29,0-.14.23c-.14.23-.13.24.09.45s.24.21.44.1.5-.44.39-.58a.2.2,0,0,1,0-.21.77.77,0,0,0,0-.41c0-.27,0-.32.12-.3s.13,0,.12-.15a.32.32,0,0,1,.16-.3c.17-.12.19-.11.27,0a.66.66,0,0,0,.1.17s.13,0,.26-.11l.22-.14-.19-.15A.53.53,0,0,0,36.67,32.4Zm-.82,1.83a.12.12,0,0,1-.09.1s-.09,0-.09-.1,0-.12.09-.11A.14.14,0,0,1,35.85,34.23Z"/><path d="M36.49,33.46c-.19.16-.19.16,0,.16s.36-.13.36-.25S36.69,33.3,36.49,33.46Z"/><path d="M34.71,34.54c-.08.21,0,.41.19.43s.18,0,.17-.16C35.06,34.48,34.81,34.3,34.71,34.54Z"/><path d="M35.4,34.88c-.14.13,0,.28.13.26s.18-.08.18-.15S35.5,34.79,35.4,34.88Z"/><path d="M36.29,35.46a1,1,0,0,0-.29.45s.1.05.21.05a.24.24,0,0,0,.26-.21C36.53,35.52,36.43,35.37,36.29,35.46Z"/><path d="M34.84,36.47c-.17.16-.09.3.15.27s.39-.38.1-.36A.52.52,0,0,0,34.84,36.47Z"/><path d="M34.9,36.93a1,1,0,0,0-.39.71c0,.14.05.16.36.16a.65.65,0,0,0,.52-.17l.16-.17-.32,0c-.26,0-.31,0-.29-.09s.1-.13.34-.12.31,0,.31-.12C35.59,36.88,35.23,36.74,34.9,36.93Z"/><path d="M36.06,37.06c-.11.13-.12.19,0,.37a.34.34,0,0,0,.25.21c.18,0,.29-.23.14-.32s-.08-.07,0-.11.11-.29-.06-.29A.47.47,0,0,0,36.06,37.06Z"/><path d="M34.73,38.05c-.18.11-.41.53-.34.65s.12,0,.24-.09l.17-.16v.35c0,.38-.38,1-.58.88s-.06-.13.12-.37.26-.46,0-.46-.49.42-.49.66.24.62.36.62a2.19,2.19,0,0,0,.59-.47c.46-.44.48-.49.42-.74a2.8,2.8,0,0,1-.07-.59C35.13,38,35,37.9,34.73,38.05Z"/><path d="M35.29,38.64c-.07.18,0,.28.22.23a.16.16,0,0,0,.15-.17C35.62,38.53,35.36,38.48,35.29,38.64Z"/><path d="M20.76,29.55c-.22.17-.22.19-.05.19s.17,0,.17-.11.05-.1.13-.07.12,0,.12,0S21,29.37,20.76,29.55Z"/><path d="M21.47,30.51a.74.74,0,0,1-.14.38l-.13.2.17-.19c.15-.16.25-.57.14-.57S21.47,30.41,21.47,30.51Z"/><path d="M21.63,30.71c0,.18,0,.31,0,.27a.53.53,0,0,0,0-.34C21.67,30.38,21.67,30.38,21.63,30.71Z"/><path d="M21.82,30.81c0,.11,0,.15,0,.1a.67.67,0,0,0,0-.2C21.83,30.66,21.82,30.7,21.82,30.81Z"/><path d="M44.55,34.69c-.11.08-.12.13,0,.24a.38.38,0,0,0,.28.14c.24,0,.33-.23.13-.37S44.73,34.56,44.55,34.69Z"/><path d="M21.33,43.92c0,.27.05.69.05.92,0,.43,0,.44.25.44s.24,0,.22-.11a3.15,3.15,0,0,1-.09-.58l-.05-.48.5.48a2.54,2.54,0,0,1,.5.58c0,.07.11.11.28.11h.27l-.06-.47c0-.25-.06-.67-.06-.92,0-.46,0-.46-.27-.46s-.25,0-.22.1a3.36,3.36,0,0,1,.1.59l.06.47-.39-.36a3.9,3.9,0,0,1-.52-.58.39.39,0,0,0-.38-.22h-.24Z"/><path d="M23.92,44.36v.93l.68,0c.58,0,.7,0,.89-.22A1,1,0,0,0,25.71,44c-.13-.42-.41-.55-1.19-.55h-.6Zm1.28-.45a.71.71,0,0,1,.07.83,1,1,0,0,1-.5.18l-.4.06V43.75h.34A.69.69,0,0,1,25.2,43.91Z"/><path d="M19.41,43.56c-.1,0-.16.09-.14.14a3.15,3.15,0,0,1-.24.92l-.27.82H19c.19,0,.23,0,.26-.23s.05-.21.44-.21.42,0,.44.17.08.19.32.19a.56.56,0,0,0,.28,0s-.21-.37-.46-.77a4.55,4.55,0,0,1-.46-.9C19.8,43.51,19.76,43.5,19.41,43.56Zm.3.79c.13.28.13.28-.11.28s-.24,0-.16-.3S19.59,44.1,19.71,44.35Z"/><path d="M28,44.38a7.72,7.72,0,0,1-.06.91c0,.12,0,.15.23.15h.27l0-.37,0-.38.43,0c.42,0,.42,0,.42-.2s0-.23-.13-.19a.74.74,0,0,1-.42,0c-.2,0-.28-.08-.28-.2s0-.17.62-.13.63,0,.63-.18,0-.2-.82-.22H28Z"/><path d="M29.82,44.5a5.84,5.84,0,0,1-.14.91c-.05.13,0,.19,0,.19a1.35,1.35,0,0,1,.29,0c.17,0,.2,0,.15-.08a.77.77,0,0,1,0-.37c.07-.36.37-.33.55,0a1.27,1.27,0,0,1,.14.4c0,.08.09.12.29.12h.3l-.21-.4c-.15-.29-.19-.41-.1-.41s.39-.27.39-.5a.64.64,0,0,0-.43-.55l-.66,0-.56-.07Zm1.23-.18a.18.18,0,0,1,0,.18c0,.1-.17.13-.46.13s-.41,0-.36-.24,0-.24.38-.19A1.19,1.19,0,0,1,31.05,44.32Z"/><path d="M15.41,44.14a.29.29,0,0,0-.22.22,2.43,2.43,0,0,1-.12.39L15,45l-.24-.23c-.14-.12-.23-.25-.19-.3s-.55,0-.63,0a3.13,3.13,0,0,0,.48.5c.38.37.5.55.54.81s.07.32.3.29.24-.07.2-.17a1.29,1.29,0,0,1,0-1.22,2.31,2.31,0,0,0,.18-.59S15.52,44.12,15.41,44.14Z"/><path d="M32,45c-.08.42-.16.82-.18.9s.07.15.52.22c1,.16,1.07.15,1.09-.09s0-.21-.12-.17a2.66,2.66,0,0,1-.57,0c-.37,0-.41-.08-.41-.25s0-.2.33-.18.36.06.38.11.08,0,.1-.11c.08-.27.07-.4,0-.34a1,1,0,0,1-.38,0c-.23,0-.29-.09-.29-.24s0-.18.32-.14l.57.1c.2,0,.28,0,.31-.05s.06-.36,0-.32a2.88,2.88,0,0,1-.78-.06l-.71-.1Z"/><path d="M33.91,45.41c-.15.61-.19.89-.13.92a2,2,0,0,0,.47.11,5.86,5.86,0,0,1,.69.16c.28.09.31.09.35-.07s.05-.19.05-.22a2.18,2.18,0,0,0-.58-.14c-.57-.11-.66-.17-.51-.4s.67-.06.67.08.09,0,.16-.23.07-.23-.25-.24a1.33,1.33,0,0,1-.4-.06c-.09,0,0-.37.1-.37a3.81,3.81,0,0,1,.94.26c.07,0,.12,0,.15-.14a.52.52,0,0,0,0-.23s-1.35-.29-1.45-.29A3,3,0,0,0,33.91,45.41Z"/><path d="M12.58,44.81a5.9,5.9,0,0,1-.81.16c-.25,0-.26,0-.21.22s0,.26.34.16a.61.61,0,0,1,.31-.05,4.6,4.6,0,0,1,.28,1.21c0,.2,0,.21.24.16l.24-.06a6,6,0,0,0-.15-.65,3.32,3.32,0,0,1-.12-.75c0-.05.15-.09.29-.09s.25,0,.25-.2,0-.21-.06-.23A2.36,2.36,0,0,0,12.58,44.81Z"/><path d="M36,45.16a6.5,6.5,0,0,1-.15.9c-.17.76-.2.71.52.78s1.18-.18,1.32-.9-.2-.87-1.09-.95l-.6-.06Zm1.26.37a.94.94,0,0,1-.15.81c-.09.1-.26.14-.54.14s-.4,0-.4-.06.08-.41.21-1c0-.15.07-.16.42-.11A.81.81,0,0,1,37.26,45.53Z"/><path d="M10.48,45.18c-.19,0-.23.06-.19.16a9.5,9.5,0,0,1,.31,1.48c0,.2,0,.22.22.17l.23-.06s-.07-.41-.17-.89l-.17-.88Z"/><path d="M9.13,45.43c-.15,0-.21.07-.16.11a.77.77,0,0,1,.16.43,1.7,1.7,0,0,0,.11.5c.06.15-.44-.22-.89-.65-.23-.21-.33-.26-.52-.24s-.24.07-.2.17a6.75,6.75,0,0,1,.2.89c.07.42.14.77.15.79s.1,0,.21,0l.21,0-.12-.49a2.28,2.28,0,0,1-.09-.56c0-.1,1.06.75,1.06.89s.06.09.2,0a2.21,2.21,0,0,1,.29,0c.07,0,.08,0,0-.14a6.12,6.12,0,0,1-.22-.92c-.09-.43-.15-.78-.16-.78Z"/><path d="M38.4,45.54a1,1,0,0,0-.39.51.58.58,0,0,0,0,.6,1,1,0,0,0,1,.55.75.75,0,0,0,.67-.27.71.71,0,0,0,.28-.59,1,1,0,0,0-.63-.87A.9.9,0,0,0,38.4,45.54Zm1,.38a.63.63,0,0,1,.17.4.59.59,0,0,1-1,.36c-.4-.38-.16-.92.41-.92A.66.66,0,0,1,39.41,45.92Z"/><path d="M40.37,46.16c0,.38-.07.78-.09.89s0,.23.15.27.29.07.25-.31a1.78,1.78,0,0,1,0-.58c.06-.21.07-.19.26.31a1.71,1.71,0,0,0,.28.55,1.76,1.76,0,0,0,.35-.46l.27-.47,0,.31a1.55,1.55,0,0,1-.06.54c-.09.23-.08.24.18.24s.27,0,.27-.23,0-.53.06-.92l.06-.7h-.27c-.24,0-.29,0-.51.48a1.63,1.63,0,0,1-.3.47,3,3,0,0,1-.36-.93c0-.06-.12-.11-.27-.13l-.27,0Z"/><path d="M5.24,45.73a.2.2,0,0,0,0,.18,2.51,2.51,0,0,1,.13.61c.11.86.28,1,1.06,1,.61,0,.76-.19.68-.86A6.2,6.2,0,0,1,7.06,46a.23.23,0,0,0-.21-.25c-.27-.06-.37,0-.26.12a1.92,1.92,0,0,1,.11.7l0,.59-.32,0A.84.84,0,0,1,6,47.12,2.57,2.57,0,0,1,5.72,46c0-.19-.06-.25-.22-.27A.38.38,0,0,0,5.24,45.73Z"/></g></g></svg>