<svg xmlns="http://www.w3.org/2000/svg" viewBox="0 0 248.5 248.5"><title>Asset 1</title><g id="Layer_2" data-name="Layer 2"><g id="Layer_1-2" data-name="Layer 1"><path d="M125.06,0c68.4.35,123.87,56.69,123.44,125.37-.43,68.28-57.08,123.75-125.74,123.12C55.06,247.88-.24,191.68,0,123.75.25,55.29,56.47-.35,125.06,0Zm80.41,202.16c43.89-40.7,42.76-116.1-2.45-159.56C156-2.57,80.29,1,38.15,50.37-.6,95.75,2.42,170.84,43.74,202c13.19-5.32,26.16-10.31,38.93-15.75,16.56-7,19.13-17.53,9.92-33-6.54-11-14-22.42-16.53-34.59-2.89-14.05-1.24-29.15-.72-43.76.84-23.48,14.17-37.77,38-41.8,22-3.74,53.86,8.44,56.8,26.2,3.68,22.25,2.25,45.72,0,68.37-.91,9.27-9.43,17.91-14.88,26.6-8.6,13.69-5.6,25.14,9.13,31.47C177.59,191.38,191,196.41,205.47,202.16Z" style="fill:#9c9c9c"/></g></g></svg>